<?xml version="1.0" encoding="utf-8"?>
<!-- Generator: Adobe Illustrator 21.0.2, SVG Export Plug-In . SVG Version: 6.00 Build 0)  -->
<svg version="1.1" id="Layer_1" xmlns="http://www.w3.org/2000/svg" xmlns:xlink="http://www.w3.org/1999/xlink" x="0px" y="0px"
	 viewBox="0 0 300 300" style="enable-background:new 0 0 300 300;" xml:space="preserve">
<style type="text/css">
	.st0{fill:#FF9C0C;}
	.st1{fill:#FFFFFF;}
	.st2{fill-rule:evenodd;clip-rule:evenodd;fill:#FFFFFF;}
</style>
<circle class="st0" cx="150" cy="150" r="149.5"/>
<g>
	<path class="st1" d="M234.3,166.4l-10.5,0.2v9.2l10.3,0.1l-0.4,4l-9.9,0.2v12.8h-7v-30.8h17.9L234.3,166.4L234.3,166.4z
		 M211.4,183.2c-0.6,2.1-1.6,3.9-2.9,5.4c-1.3,1.5-3,2.6-5.1,3.4c-2.1,0.8-4.5,1.2-7.4,1.2c-0.8,0-1.6,0-2.5,0
		c-0.9,0-1.7-0.1-2.6-0.1c-0.8-0.1-1.6-0.1-2.4-0.2c-0.8-0.1-1.5-0.1-2-0.2l-0.6-0.1v-30.1l0.6-0.1c0.6-0.1,1.3-0.1,2.1-0.2
		c0.8-0.1,1.7-0.1,2.6-0.2c0.9-0.1,1.8-0.1,2.7-0.1c0.9,0,1.8,0,2.6,0c2.3,0,4.5,0.3,6.4,0.8c1.9,0.5,3.6,1.4,5,2.6
		c1.4,1.2,2.5,2.7,3.3,4.6c0.8,1.9,1.2,4.1,1.2,6.6C212.3,178.9,212,181.1,211.4,183.2L211.4,183.2z M181.8,175.1
		c-0.5,1.3-1.2,2.4-2.2,3.4c-1,1-2.3,1.7-3.8,2.3c-1.5,0.5-3.3,0.8-5.3,0.8h-0.8l-0.1-0.8v12.2h-7v-30.6l0.6,0c0.6,0,1.2-0.1,2-0.1
		c0.7,0,1.4-0.1,2.2-0.1c0.8,0,1.5-0.1,2.3-0.1c0.8,0,1.5,0,2.2,0c1.8,0,3.3,0.2,4.7,0.6c1.3,0.4,2.5,1,3.4,1.8
		c0.9,0.8,1.6,1.8,2,2.9c0.4,1.1,0.7,2.4,0.7,3.7C182.5,172.5,182.3,173.8,181.8,175.1L181.8,175.1z M238.7,156.9h-80.3
		c-0.7,0-1.3,0.6-1.3,1.3v38.6c0,0.7,0.6,1.3,1.3,1.3h80.3c0.7,0,1.3-0.6,1.3-1.3v-38.6C240,157.5,239.4,156.9,238.7,156.9
		L238.7,156.9z M202.1,168.2c-0.8-0.8-1.8-1.3-3-1.6c-1.2-0.3-2.5-0.5-3.8-0.5c-0.2,0-0.4,0-0.7,0c-0.3,0-0.5,0-0.8,0
		c-0.3,0-0.5,0-0.8,0.1l0,0v22.5l0.1,0c0.3,0,0.5,0.1,0.8,0.1c0.3,0,0.5,0,0.8,0c0.2,0,0.5,0,0.6,0c1.7,0,3.1-0.1,4.1-0.3
		c1.1-0.2,1.9-0.6,2.7-1.1c0.4-0.3,0.7-0.7,1.1-1.2c0.3-0.5,0.6-1.1,0.9-1.9c0.3-0.8,0.5-1.8,0.6-3c0.2-1.2,0.2-2.8,0.2-4.6
		c0-2.2-0.3-4.1-0.8-5.4C203.6,170,202.9,169,202.1,168.2L202.1,168.2z M171.2,166.3c-0.3,0-0.7,0-1.1,0c-0.2,0-0.4,0-0.5,0V178
		l0.2,0l0.8-0.2c0.7-0.2,1.4-0.4,2-0.6c0.6-0.2,1.1-0.6,1.5-1c0.4-0.4,0.7-1,1-1.8c0.2-0.8,0.4-1.8,0.4-3.1c0-1.9-0.4-3.1-1.2-3.9
		C173.4,166.7,172.5,166.3,171.2,166.3L171.2,166.3z M148.1,174.3h-46v6.4h46V174.3L148.1,174.3z M102.1,197.7h46v-6.4h-46V197.7
		L102.1,197.7z M148.1,157.4h-46v6.4h46V157.4L148.1,157.4z M142.8,127.4c3,0.3,6.2,0.9,8.6,1.9c1.7,0.6,3.1,1.4,3.9,2.1
		c0.8,0.7,1,1.2,1,1.6c0,0.2,0,0.4-0.2,0.7c-0.2,0.4-0.3,0.5-0.5,0.6c-0.1,0.1-0.4,0.2-0.8,0.2c-1.2,0-3.7-0.9-6.1-2.4
		C146.7,130.7,144.6,129,142.8,127.4L142.8,127.4z M120.6,125.7c1.6-3.1,3.2-6.6,5-10.5c0.1-0.2,0.2-0.4,0.2-0.5
		c1.6,2.7,3.7,5.5,6.1,8.4C128.5,123.7,124.6,124.6,120.6,125.7L120.6,125.7z M124.4,92.1c0.1-1.7,0.6-2.7,1-3.2
		c0.4-0.5,0.6-0.5,0.6-0.5c0,0,0,0,0.2,0.2c0.2,0.2,0.4,0.7,0.4,1.6c0,0.1,0,0.1,0,0.2c-0.1,1.9-0.3,5.4-1.5,10.4
		c-0.6-2.4-0.8-4.6-0.8-6.5C124.3,93.5,124.4,92.8,124.4,92.1L124.4,92.1z M100.8,142.2c-0.4,0.2-0.8,0.2-1,0.2l-0.1,0
		c0.3-0.7,1.4-2.2,4.1-4.1c1.5-1.1,3.2-2,5.1-3C105.6,139.4,103,141.3,100.8,142.2L100.8,142.2z M158.2,138.6
		c1.1-0.6,1.9-1.6,2.5-2.8c0.4-0.9,0.7-1.9,0.7-2.9c0-2.2-1.2-4.1-2.7-5.4c-2.3-1.9-5.3-3.2-8.7-4.1c-3.4-0.9-7-1.3-10.4-1.3
		c-0.6,0-1.2,0-1.8,0c-4.5-5.1-7.6-9.6-9.7-13.7c3-8.7,3.5-15.1,3.6-18c0-0.1,0-0.3,0-0.4c0-1.8-0.5-3.5-1.5-4.7
		c-1-1.3-2.5-2.1-4.2-2.1c-1.8,0-3.5,0.9-4.6,2.4c-1.2,1.5-1.9,3.5-2.1,5.9c-0.1,0.8-0.1,1.7-0.1,2.6c0,4.1,0.9,9,3.4,14.5
		c-0.5,1.4-1.1,2.8-1.8,4.3c-2.6,6-5,10.8-7.2,14.7c-4.7,1.7-9.2,3.7-12.9,6.3c-2.1,1.5-3.6,2.8-4.6,4.2c-1,1.4-1.7,2.8-1.7,4.3
		c0,1.4,0.7,2.8,1.7,3.6c1.1,0.8,2.3,1.1,3.5,1.1c0.9,0,1.9-0.2,2.8-0.5l0,0c3.6-1.4,7.1-4.2,10.8-9.2c1.2-1.6,2.5-3.5,3.8-5.7
		c0.8-0.3,1.6-0.5,2.4-0.7c5.9-1.8,11.8-3,16.2-3.8l0.2,0c0.7,0.8,1.5,1.6,2.3,2.4c2.3,2.3,5.1,4.6,7.9,6.4c2.9,1.8,5.8,3.2,8.8,3.2
		C155.9,139.5,157.1,139.2,158.2,138.6L158.2,138.6z M190.6,211.9H89V78.1h63.8c0,0-0.2,26.5,0,35.3c0,1.3-0.4,2.3,2,2.3
		c8.9,0,35.7,0,35.7,0v32.6h13v-32.6h0l-50.8-50.5H82.5c-1.7,0-3.4,0.7-4.6,1.9c-1.2,1.2-1.9,2.9-1.9,4.6v146.8
		c0,1.7,0.7,3.4,1.9,4.6c1.2,1.2,2.9,1.9,4.6,1.9h114.6c1.7,0,3.4-0.7,4.6-1.9c1.2-1.2,1.9-2.9,1.9-4.6v-11h-13V211.9L190.6,211.9z"
		/>
</g>
</svg>
