<?xml version="1.0" encoding="utf-8"?>
<!-- Generator: Adobe Illustrator 21.0.2, SVG Export Plug-In . SVG Version: 6.00 Build 0)  -->
<svg version="1.1" id="Layer_1" xmlns="http://www.w3.org/2000/svg" xmlns:xlink="http://www.w3.org/1999/xlink" x="0px" y="0px"
	 viewBox="0 0 300 300" style="enable-background:new 0 0 300 300;" xml:space="preserve">
<style type="text/css">
	.st0{fill:#FF9C0C;}
	.st1{fill:#FFFFFF;}
	.st2{fill-rule:evenodd;clip-rule:evenodd;fill:#FFFFFF;}
</style>
<circle class="st0" cx="150" cy="150" r="149.5"/>
<g>
	<path class="st1" d="M211.5,233.8c-0.4,0.5-1.1,0.8-1.8,0.8H90.3c-0.7,0-1.4-0.3-1.8-0.8c-0.4-0.5-0.6-1.1-0.5-1.7l8.1-59
		c0.1-1.1,1.2-1.9,2.3-1.9h103.2c1.2,0,2.2,0.8,2.3,1.9l8.1,59C212.2,232.8,212,233.4,211.5,233.8L211.5,233.8z M212.3,172
		c-0.7-5.3-5.3-9.2-10.7-9.2H98.4c-5.4,0-10,4-10.7,9.2l-8.1,59c-0.4,3.1,0.5,6.2,2.6,8.5c2.1,2.3,5,3.6,8.1,3.6h119.5
		c3.1,0,6.1-1.3,8.1-3.6c2.1-2.3,3-5.4,2.6-8.5L212.3,172L212.3,172z"/>
	<path class="st1" d="M88,129.2c0,5-3.9,9.1-8.6,9.1c-4.8,0-8.6-4.1-8.6-9.1c0-5,3.9-9.1,8.6-9.1C84.2,120.1,88,124.2,88,129.2
		L88,129.2z M230.9,103.1H69.1c-10,0-18.1,8.6-18.1,19.2v59c0,4.6,3.5,8.3,7.8,8.3h23.4L84,176l-0.7-0.3c-2.1-1-3.4-3.2-3.4-5.7
		v-5.1c0-3.4,2.6-6.2,5.9-6.2h128.5c3.2,0,5.9,2.8,5.9,6.2v5.1c0,2.4-1.3,4.6-3.4,5.7L216,176l1.7,13.6h23.4c4.3,0,7.8-3.7,7.8-8.3
		v-59C249,111.7,240.9,103.1,230.9,103.1L230.9,103.1z"/>
	<path class="st1" d="M112.3,190.6h75.5c2.4,0,4.4-1.9,4.4-4.2c0-2.3-2-4.2-4.4-4.2h-75.5c-2.4,0-4.4,1.9-4.4,4.2
		C107.8,188.7,109.8,190.6,112.3,190.6L112.3,190.6z"/>
	<path class="st1" d="M108.8,207.9h82.4c2.4,0,4.4-1.9,4.4-4.2c0-2.3-2-4.2-4.4-4.2h-82.4c-2.4,0-4.4,1.9-4.4,4.2
		C104.4,206,106.4,207.9,108.8,207.9L108.8,207.9z"/>
	<path class="st1" d="M194.6,216.7h-89.2c-2.4,0-4.4,1.9-4.4,4.2c0,2.3,2,4.2,4.4,4.2h89.2c2.4,0,4.4-1.9,4.4-4.2
		C199,218.6,197.1,216.7,194.6,216.7L194.6,216.7z"/>
	<path class="st1" d="M188.2,78.5v-7.8l7.7,8.2h-7.4C188.4,78.9,188.2,78.7,188.2,78.5L188.2,78.5z M99.9,68.8
		c0-1.4,1.1-2.6,2.5-2.6h77.1v17.3c0,2.6,2,4.7,4.4,4.7h16.3v14.9h8.8V83c0-2.2-0.9-4.4-2.4-5.9l-17.3-17.8
		c-1.5-1.5-3.4-2.4-5.5-2.4h-81.5c-6.2,0-11.3,5.4-11.3,11.9v34.3h8.8V68.8L99.9,68.8z"/>
</g>
</svg>
