<svg xmlns="http://www.w3.org/2000/svg" viewBox="0 0 49.59 45.77"><defs><style>.cls-1{fill:#ff9b0c;}</style></defs><title>blog_icon</title><g id="Layer_2" data-name="Layer 2"><g id="Blog"><path class="cls-1" d="M0,10.17V25.43A10.17,10.17,0,0,0,10.17,35.6h9.54L35,45.77,29.88,35.6h9.54A10.17,10.17,0,0,0,49.59,25.43V10.17A10.17,10.17,0,0,0,39.41,0H10.17A10.17,10.17,0,0,0,0,10.17ZM32.42,17.8a3.81,3.81,0,1,1,3.81,3.81A3.81,3.81,0,0,1,32.42,17.8ZM21,17.8a3.81,3.81,0,1,1,3.81,3.81A3.81,3.81,0,0,1,21,17.8Zm-11.44,0a3.81,3.81,0,1,1,3.81,3.81A3.81,3.81,0,0,1,9.54,17.8Z"/></g></g></svg>