<svg id="Layer_1" data-name="Layer 1" xmlns="http://www.w3.org/2000/svg" viewBox="0 0 300 300"><defs><style>.cls-1{fill:#ff9c0c;}</style></defs><title>Artboard 1</title><path class="cls-1" d="M272.37,29.93H252.7V40.25A17.71,17.71,0,0,1,235,57.95H212.47a17.71,17.71,0,0,1-17.7-17.7V29.93H103.54V40.25a17.71,17.71,0,0,1-17.7,17.7H63.31a17.71,17.71,0,0,1-17.7-17.7V29.93H25.94c-10.29,0-18.66,7.71-18.66,17.17V281.42c0,9.47,8.37,17.18,18.66,17.18H272.37c10.29,0,18.66-7.71,18.66-17.18V47.11C291,37.64,282.66,29.93,272.37,29.93Zm-1.76,249.22H27.7V88.84H270.61Z"/><path class="cls-1" d="M63.31,49.11H85.84a8.88,8.88,0,0,0,8.85-8.85V11.85A8.89,8.89,0,0,0,85.84,3H63.31a8.88,8.88,0,0,0-8.85,8.85v28.4A8.88,8.88,0,0,0,63.31,49.11Z"/><path class="cls-1" d="M212.47,49.11H235a8.88,8.88,0,0,0,8.85-8.85V11.85A8.88,8.88,0,0,0,235,3H212.47a8.88,8.88,0,0,0-8.85,8.84v28.4A8.88,8.88,0,0,0,212.47,49.11Z"/><path class="cls-1" d="M124,232.44a11.67,11.67,0,0,0,16.47,0l77.82-77.83a11.64,11.64,0,0,0,0-16.47l-9.86-9.85a11.64,11.64,0,0,0-16.46,0L132.23,188l-25.9-25.89a11.62,11.62,0,0,0-16.46,0L80,172a11.66,11.66,0,0,0,0,16.47Z"/></svg>