<svg xmlns="http://www.w3.org/2000/svg" viewBox="0 0 70.84 53.13"><defs><style>.cls-1{fill:#fff;}</style></defs><title>camera_wh</title><g id="Layer_2" data-name="Layer 2"><g id="artwork"><path class="cls-1" d="M35.42,20.31A10.69,10.69,0,1,0,46.11,31,10.7,10.7,0,0,0,35.42,20.31Z"/><path class="cls-1" d="M66.59,8.85H51.17L46,0H24.8L19.68,8.85H4.25A4.26,4.26,0,0,0,0,13.11V48.88a4.25,4.25,0,0,0,4.25,4.25H66.59a4.25,4.25,0,0,0,4.25-4.25V13.11A4.25,4.25,0,0,0,66.59,8.85Zm-40-5.66h17.7V7.08H26.57Zm8.85,43A15.23,15.23,0,1,1,50.65,31,15.24,15.24,0,0,1,35.42,46.23ZM63.76,17.89H54.9V14h8.85Z"/></g></g></svg>