<svg id="Layer_1" data-name="Layer 1" xmlns="http://www.w3.org/2000/svg" viewBox="0 0 300 300"><defs><style>.cls-1{fill:#ff9c0c;}</style></defs><title>Artboard 1</title><path class="cls-1" d="M268.26,67h-15l-2.14-8.55c-12.7,10.66-14.89,23.44-21.3,27.72-25.52,17-36.14,19.12-48.9,42.53,0-29.81,21.27-42.53,31.87-55.33s14.9-17,14.9-34c0-19.19-10.63-34.05-29.78-34.05,12.83,4.26,19.15,12.77,19.15,25.55,0,25.53-44.67,61.7-87.21,65.94-27.69,4.33-53.22,6.39-72.34,15-34.08,12.72-55.4,46.82-55.4,76.56,0,17,4.24,34.05,42.64,49C27.66,220.25,15,207.46,15,186.2s10.65-40.44,25.53-46.82c-10.7,14.85-17,38.32-17,46.82,0,17,8.51,36.14,38.31,53.19-8.51-12.78-17-25.54-17-38.26s6.37-23.42,12.76-29.85c0,12.77-2.19,19.13-2.19,29.85,0,21.21,15,42.5,49,42.5,25.53,0,63.85-17,63.85-44.68,0-12.75-2.12-23.36-4.25-34.05,10.61,10.69,12.69,25.51,12.69,42.56,0,12.8-21.21,40.47-61.63,40.47-23.46,0-23.46,0-38.35-4.3,14.88,10.65,40.43,19.17,59.56,19.17,23.41,0,49-23.41,57.49-42.55,0,23.37-23.44,51.07-42.61,51.07-8.5,0-12.74,0-19.1-2.11,12.75,8.49,19.1,10.61,32,10.61,34,0,59.6-25.54,59.6-44.7,0-10.64,0-21.27-6.46-34,8.56,8.51,14.93,23.36,14.93,34,0,21.27-27.68,51.11-46.82,51.11-10.64,0-12.78,0-21.25-2.18v4.3c4.25,4.22,14.85,8.5,21.25,8.5,34.07,0,63.78-27.64,63.78-66,0-25.59-34-63.85-34-97.92,0-17,12.74-34.09,21.28-42.57S264,69.12,268.26,67ZM80.88,126.57l-2.11-2.12c14.92-12.72,38.33-14.94,72.34-19.16C123.45,111.74,100.05,118.05,80.88,126.57Z"/><path class="cls-1" d="M117.1,264.94l-14.91,6.39L95.8,258.55l-14.91,6.39c-8.42-12.79-12.72-17-23.34-21.3,8.46,8.52,14.92,19.17,17,29.8l17-6.4L98,279.83l14.84-6.39,4.28,12.81c12.78,0,31.94,0,38.34,4.24-12.83-8.57-21.32-12.78-34.11-12.78Z"/><path class="cls-1" d="M298,7.45c-8.49-4.29-10.62-4.29-21.25-4.29-19.17,0-31.9,6.38-44.72,21.26,2.14,8.54,4.25,10.67,4.25,19.21,0,17-12.71,34-29.8,44.64l2.13,2.14c21.26-12.8,27.67-23.4,36.25-38.27,12.73-19.17,21.22-21.3,40.36-27.71l-8.47-6.37A98.33,98.33,0,0,1,298,7.45Z"/></svg>