<svg id="Layer_1" data-name="Layer 1" xmlns="http://www.w3.org/2000/svg" viewBox="0 0 300 300"><defs><style>.cls-1{fill:#ff9c0c;fill-rule:evenodd;}</style></defs><title>Artboard 1</title><path class="cls-1" d="M11,77.67,148.95,2,286.56,77.66c2,1.11,4.17,1.9,4.17,4.17V86a4.19,4.19,0,0,1-4.17,4.17H11A4.18,4.18,0,0,1,6.86,86v-4.2c0-2.29,2.16-3.06,4.17-4.17ZM148.79,36.26a15,15,0,1,0,15,15,15,15,0,0,0-15-15ZM30.42,99.43H267.17a4.17,4.17,0,0,1,4.17,4.17v15.27a4.18,4.18,0,0,1-4.17,4.17H30.42a4.2,4.2,0,0,1-4.18-4.17V103.6a4.19,4.19,0,0,1,4.17-4.17ZM11,274.33H286.56a4.18,4.18,0,0,1,4.17,4.16v15.27a4.19,4.19,0,0,1-4.17,4.18H11a4.18,4.18,0,0,1-4.17-4.17V278.49A4.17,4.17,0,0,1,11,274.33Zm19.39-30.56H267.17a4.17,4.17,0,0,1,4.17,4.16V263.2a4.18,4.18,0,0,1-4.17,4.17H30.42a4.19,4.19,0,0,1-4.18-4.16V247.93a4.18,4.18,0,0,1,4.17-4.17ZM46.28,132.34H74.65a4.28,4.28,0,0,1,4.26,4.25V230a4.28,4.28,0,0,1-4.26,4.26H46.28A4.28,4.28,0,0,1,42,230V136.58a4.27,4.27,0,0,1,4.26-4.25Zm58.88,0h28.38a4.27,4.27,0,0,1,4.26,4.25V230a4.29,4.29,0,0,1-4.26,4.26H105.16A4.28,4.28,0,0,1,100.9,230V136.59a4.27,4.27,0,0,1,4.26-4.25Zm58.9,0h28.36a4.28,4.28,0,0,1,4.27,4.25V230a4.29,4.29,0,0,1-4.27,4.26H164a4.27,4.27,0,0,1-4.24-4.26V136.59a4.26,4.26,0,0,1,4.24-4.25Zm58.88,0h28.37a4.27,4.27,0,0,1,4.26,4.25V230a4.29,4.29,0,0,1-4.26,4.26H222.94a4.28,4.28,0,0,1-4.26-4.26V136.58a4.26,4.26,0,0,1,4.26-4.25ZM148.79,27.53a23.77,23.77,0,1,0,23.77,23.75A23.77,23.77,0,0,0,148.79,27.53Z"/></svg>