<svg xmlns="http://www.w3.org/2000/svg" viewBox="0 0 241.13 184.8"><defs><style>.cls-1{fill:#fff;}</style></defs><title>logo_wh.png</title><g id="Layer_2" data-name="Layer 2"><g id="artwork"><path class="cls-1" d="M96.54,3.45c0,1.62-.4,2-1.42,3.24s-3,2.43-3,5.27c1.22-2.23,2.23-2.43,4.66-4.05.61-.41.82-1.62,2-2.64l.2.81h1.43a19,19,0,0,0-3,2.23,6.46,6.46,0,0,0-2,4.05c0,3.25,3.24,6.89,3.24,9.33A6.14,6.14,0,0,1,92.49,28a3.61,3.61,0,0,1-2-.81v-.41a6,6,0,0,0,2,.21C94.32,27,97,24.13,97,22.1a5.18,5.18,0,0,0-1.42-3.24,6.46,6.46,0,0,1,.62,3.24c0,1.82-2.44,4.26-5.68,4.26a4.59,4.59,0,0,1-3-1,5.05,5.05,0,0,0,1.82.2c1.82,0,4.06-2.64,4.06-4.87-.81,1.82-3.25,4.05-5.48,4.05a11.09,11.09,0,0,1-5.68-1.82,9,9,0,0,0,3.65.41c3.85,0,5.87-2.64,5.87-3.86,0-1.62-.2-3-1.21-4.05a15.94,15.94,0,0,1,.4,3.24c0,2.64-3.65,4.26-6.08,4.26-3.24,0-4.67-2-4.67-4.05,0-1,.21-1.63.21-2.84a4.11,4.11,0,0,0-1.21,2.84,7.29,7.29,0,0,0,1.62,3.65c-2.84-1.62-3.65-3.45-3.65-5.07A9.94,9.94,0,0,1,78.71,13a4.8,4.8,0,0,0-2.43,4.46c0,2,1.21,3.24,2.84,4.86-3.66-1.42-4.06-3-4.06-4.67a8.2,8.2,0,0,1,5.28-7.29c1.82-.82,4.25-1,6.89-1.43,4.05-.4,8.31-3.85,8.31-6.28A2.38,2.38,0,0,0,93.71.2C95.53.2,96.54,1.62,96.54,3.45Z"/><path class="cls-1" d="M82.56,24.94,84,24.34l.61,1.22L86,24.94l.4,1.22a5.39,5.39,0,0,1,3.25,1.22C89,27,87.22,27,86,27l-.41-1.22-1.41.61-.61-1.22L82,25.75a5.8,5.8,0,0,0-1.62-2.84A4.2,4.2,0,0,1,82.56,24.94Z"/><path class="cls-1" d="M82.56,11.76a38.2,38.2,0,0,1,6.69-2c-3.24.4-5.47.61-6.89,1.83Z"/><path class="cls-1" d="M97.36,3.86A5.89,5.89,0,0,0,97,2a5.11,5.11,0,0,1,4.26-2,3.31,3.31,0,0,1,2,.41,9.43,9.43,0,0,0-2,1L102,2c-1.82.61-2.63.81-3.85,2.64a8.41,8.41,0,0,1-3.45,3.65l-.2-.2A5.47,5.47,0,0,0,97.36,3.86Z"/><path class="cls-1" d="M16.83,133.63l-.41.2c-.2,0-.2-.2-.4-.2-.4,0-1.62,2.43-7.5,2.43-4.26,0-8.52-2.43-8.52-7.3,0-4.66,3.86-7.7,9.33-7.7a13.15,13.15,0,0,1,6.29,1.62l.2-.21.41.21-1.82,3.24-.4-.2c.2-.2.2-.2.2-.4,0-.41-2-2-5.27-2-3,0-6.08,1.82-6.08,5.27,0,3.85,3,5.27,5.88,5.27,3.24,0,5.87-1.82,5.87-2.43V131l.21-.21Zm20.08-6.28v-5.28c0-.4,0-.4-.41-.4v-.41h3.65v.41c-.41,0-.41,0-.41.4v13c0,.4,0,.4.41.4v.4H36.5v-.4c.41,0,.41,0,.41-.4V130H27.78v5.07c0,.4,0,.4.61.4v.4H24.33v-.4c.41,0,.61,0,.61-.4v-13c0-.4-.2-.4-.61-.4v-.41h4.06v.41c-.61,0-.61,0-.61.4v5.28Zm17.64-3-2.44,5.48h4.67Zm8.11,11,.41.2v.4H59v-.4l.41-.2L58,132H51.1l-1.42,3.24.4.2v.4H46.44v-.4l.61-.2,6.08-13.38-.6-.2v-.41h4.25v.41l-.61.2Zm10.54-.2c0,.4,0,.4.61.4v.4H70.17v-.4c.4,0,.4,0,.4-.4v-13c0-.4,0-.4-.4-.4v-.41h4.05v.41l-.4.2,5.07,8.92,4.66-8.92-.61-.2v-.41H87.4v.41c-.41,0-.41,0-.41.4v13c0,.4,0,.4.41.4v.4H84v-.4c.4,0,.4,0,.4-.4v-9.33l-5.27,10.14h-.41l-5.47-9.94Zm26.37-7.91h6.28c1.21,0,2.23-.4,2.23-1.82s-1-1.63-2.23-1.63H99.57Zm6.48-5.88c3.45,0,4.87,1.83,4.87,3.85a3.64,3.64,0,0,1-1.82,3c1.22.61,2.23,1.22,2.23,3.66,0,2.83-2.23,4-4.87,4H96.12v-.4c.61,0,.61,0,.61-.4v-13c0-.4,0-.4-.61-.4v-.41Zm-6.48,12.16h6.08c1.82,0,2.84-.4,2.84-2,0-1.42-1-2-2.84-2H99.57Zm33,2.64c0-.21-.2-.21-.81-.21H118.63v-.4c.4,0,.6,0,.6-.4v-13c0-.4-.2-.4-.6-.4v-.41h13c.6,0,.81,0,.81-.2h.2v3h-.2c0-.2-.21-.41-.81-.41h-9.54v3.45h6.29c.41,0,.62-.21.62-.4h.4V130H129c0-.2-.21-.4-.62-.4h-6.29v3.85h9.74c.61,0,.81,0,.81-.2h.21v2.84ZM144,127.35h5.88c2.23,0,2.84-.61,2.84-1.83s-1.22-1.83-3.25-1.83H144Zm7.91,7.9-3.65-5.47H144v5.27c0,.4,0,.4.4.4v.4h-3.85v-.4c.4,0,.4,0,.4-.4v-13c0-.4,0-.4-.4-.4v-.41h8.11c4.46,0,6.89,1.21,6.89,4.46a4.06,4.06,0,0,1-4.06,4.06l3.65,5.27a1.07,1.07,0,0,0,.81.4v.4h-4.26v-.4Zm46.84-6.69c0,4.26-3.65,7.5-8.92,7.5s-8.92-3.24-8.92-7.5,3.65-7.5,8.92-7.5S198.73,124.3,198.73,128.56Zm-15.21,0c0,3,2.64,5.27,6.29,5.27s6.29-2.23,6.29-5.27-2.64-5.27-6.29-5.27S183.52,125.52,183.52,128.56Zm31.64-1.42a.54.54,0,0,0,.61-.61h.4V130h-.4c0-.2-.21-.4-.61-.4h-5.88v5.47c0,.4,0,.4.4.4v.4h-3.84v-.4c.4,0,.61,0,.61-.4v-13c0-.4-.2-.4-.61-.4v-.41H218.2c.61,0,.81,0,.81-.2h.2v2.84H219c0-.21-.2-.21-.81-.21h-8.92v3.45ZM16.83,161.52l-.41.2c-.2,0-.2-.2-.4-.2-.4,0-1.62,2.43-7.5,2.43-4.26,0-8.52-2.43-8.52-7.3,0-4.66,3.86-7.71,9.33-7.71a13.1,13.1,0,0,1,6.29,1.63l.2-.2.41.2-1.82,3.25-.4-.2c.2-.21.2-.21.2-.4,0-.41-2-2-5.27-2-3,0-6.08,1.83-6.08,5.27,0,3.85,3,5.27,5.88,5.27,3.24,0,5.87-1.82,5.87-2.43v-.4l.21-.21Zm29-5.07c0,4.25-3.65,7.5-8.92,7.5S28,160.7,28,156.45s3.65-7.51,8.92-7.51S45.83,152.18,45.83,156.45Zm-15.21,0c0,3,2.64,5.27,6.29,5.27s6.28-2.23,6.28-5.27-2.63-5.27-6.28-5.27S30.62,153.4,30.62,156.45Zm31.43,6.48c0,.41,0,.41.61.41v.4H59v-.4c.41,0,.41,0,.41-.41V150c0-.41,0-.41-.41-.41v-.4h4.06v.4l-.41.21,5.07,8.92,4.66-8.92-.61-.21v-.4h4.46v.4c-.4,0-.4,0-.4.41v13c0,.41,0,.41.4.41v.4H72.79v-.4c.41,0,.41,0,.41-.41v-9.32l-5.28,10.13h-.4l-5.47-9.93Zm31.43,0c0,.41,0,.41.61.41v.4H90.44v-.4c.41,0,.41,0,.41-.41V150c0-.41,0-.41-.41-.41v-.4H94.5v.4l-.4.21,5.07,8.92,4.66-8.92-.61-.21v-.4h4.46v.4c-.4,0-.4,0-.4.41v13c0,.41,0,.41.4.41v.4h-3.45v-.4c.41,0,.41,0,.41-.41v-9.32l-5.28,10.13H99l-5.47-9.93Zm41.37,1c0-.21-.2-.21-.81-.21H120.86v-.4c.41,0,.61,0,.61-.41V150c0-.41-.2-.41-.61-.41v-.4h13c.61,0,.81,0,.81-.2h.2v3h-.2c0-.21-.21-.41-.81-.41h-9.53V155h6.28c.41,0,.61-.21.61-.4h.41v3.24h-.41c0-.2-.2-.4-.61-.4h-6.28v3.85H134c.61,0,.81,0,.81-.2h.21v2.84Zm16.62-8.73h5.88c2.23,0,2.84-.6,2.84-1.82s-1.21-1.82-3.24-1.82h-5.48Zm7.91,7.92-3.65-5.48h-4.26v5.27c0,.41,0,.41.41.41v.4H148v-.4c.41,0,.41,0,.41-.41V150c0-.41,0-.41-.41-.41v-.4h8.11c4.46,0,6.9,1.22,6.9,4.47a4.06,4.06,0,0,1-4.05,4.05l3.65,5.27a1.05,1.05,0,0,0,.81.41v.4h-4.26v-.4ZM192,161.52l-.4.2c-.2,0-.2-.2-.41-.2-.41,0-1.62,2.43-7.5,2.43-4.26,0-8.51-2.43-8.51-7.3,0-4.66,3.85-7.71,9.32-7.71a13,13,0,0,1,6.29,1.63l.21-.2.4.2-1.82,3.25-.4-.2c.19-.21.19-.21.19-.4,0-.41-2-2-5.27-2-3,0-6.09,1.83-6.09,5.27,0,3.85,3,5.27,5.88,5.27,3.25,0,5.88-1.82,5.88-2.43v-.4l.2-.21Zm26.36,2.43c0-.21-.2-.21-.81-.21H204.4v-.4c.41,0,.61,0,.61-.41V150c0-.41-.2-.41-.61-.41v-.4h13c.61,0,.82,0,.82-.2h.2v3h-.2c0-.21-.21-.41-.82-.41h-9.53V155h6.29c.41,0,.61-.21.61-.41h.41v3.24h-.41c0-.2-.2-.4-.61-.4h-6.29v3.85h9.74c.61,0,.81,0,.81-.2h.2v2.84Z"/><rect class="cls-1" x="0.03" y="183.65" width="220.63" height="1.15"/><path class="cls-1" d="M206.46,56.38a196.62,196.62,0,0,1,34.68-17l-.81-3c-5.68,2.23-16.22,5.27-29.62,12.77,2.23-4.26,3.66-7.7,3.66-9.53,0-1.62-1.62-3.65-3.25-3.65-6.49,0-38.12,28.59-46.44,34.47,10.14-16.43,26.77-28.79,26.77-34.06,0-1.62-1-3.45-2.84-3.45-2.84,0-12.17,4.46-20.68,7.51-1.42-3.65-5.07-7.1-8.52-7.1-6.69,0-15.81,4.06-15.81,9.54a2.25,2.25,0,0,0,.2,1c-6.69,5.88-19.46,16.63-29.2,24.94,2.23-4.46,8.52-11.36,13.79-17.64,3-3.45,6.69-7.3,6.69-9.13,0-5.26-3.65-4.46-3.65-6.68,0-1.22,1.21-3,3.05-4.67a5.31,5.31,0,0,0-3.66-2c-3.65,3.24-11.76,9.13-21.5,17.44-8.92,7.5-18.85,17.44-28.59,23.12,0-3.25,1.22-7.3,3.45-11.56,11.15-9.73,37.92-33.06,41.57-36.71,4.25-4.25,5.06-6.49,5.06-7.71s-.61-2.63-2.84-2.63c-6.49,0-37.51,24.54-48.87,44.81-6.49,5.07-13,9.73-18.45,13.38C65.53,57.59,74.45,48.67,79.72,43.8c3-2.83,5.07-5.07,5.07-6.49a3.32,3.32,0,0,0-3.24-2.64c-5.07,0-27.79,25.14-27.79,34.07,0,3,3.25,6.7,5.88,6.7,2,0,9.33-5.08,15.62-10.14a9.78,9.78,0,0,0-.21,2.44c0,4,5.48,7.1,6.9,7.1S87,73.61,92.09,69.15s22.11-21.29,36.7-33.46c.61,1.21,2,2.43,2,3.45s-2.43,2.43-4.87,5.07S104.66,65.5,104.66,73c0,3.24,3.24,6.28,5.07,6.28,5.48,0,14.2-11.76,19.06-16,0,6.09,3,10.35,6.9,10.35,8.72,0,28.19-16,32-27,4.46-1.83,9.12-3.65,13.58-5.48-9.53,9.13-23.52,24.33-23.52,31,0,2.23,3.85,5.88,5.27,5.88s4.67-2,6.9-3.85,32.64-28.59,38.73-32.64A101.35,101.35,0,0,1,201,54.75C187.19,63.27,173.81,73.41,162.05,87c-3.45,4.05-6.29,7.5-8.12,9.73H25C39,79.9,52.14,58.61,57.21,47.86A135.28,135.28,0,0,1,70,40c2-1,2.64-1.42,2.64-2,0-.41-.21-.61-.81-.61-1.83,0-6.69,2-12.58,5.27a2.17,2.17,0,0,0,.21-1c0-2.43-1.62-4.87-5.48-4.87-6.89,0-34.88,26-44.61,30.62,4.06-12,27-39.95,47.65-39.95,1.21,0,1.82.41,3,.41,1,0,1.22-.21,1.22-1.22,0-1.82-4.05-6.49-11.35-6.49C30.44,20.08,1.86,53.13,1.86,65.5c0,4.06,6.69,8.52,8.72,8.52,8.52,0,30.82-27.58,43.59-32-1.21,2.24-2.43,4.27-3.65,6.29A175.65,175.65,0,0,0,11.17,86.18,122.1,122.1,0,0,0,4.08,96.73H0v1.22H3.47c-1,2-1.62,3.44-1.62,4.26.2,2,5.68,7.51,8.1,7.51s8.12-5.28,9.94-7.3c1.43-1.42,2.64-3,3.86-4.46H153.13a10.91,10.91,0,0,0-1.62,3c0,1.62,4.66,8.11,7.29,8.11,5.07,0,11.15-5.27,17-11.15h44.81V96.73h-43.8C185,87.6,197.94,70,206.46,56.38ZM122.71,18.86a373.15,373.15,0,0,1-29.6,25.55C101,34.88,112,25.14,122.71,18.86ZM136.3,67.32c-1,0-1.63,0-1.63-1,0-3.65,7.71-13.38,13-17a11,11,0,0,0,4.86.81,30.48,30.48,0,0,0,8.32-1.22C154.34,57.79,141,67.32,136.3,67.32Zm27.78-25.55a31.84,31.84,0,0,1-6.69,1.62c1.82-1,3-2.23,3-3,0-1-2-3.45-4.46-3.45a26.21,26.21,0,0,1,3.24-.2c3,0,5.07,1.21,5.07,3.85A2.54,2.54,0,0,1,164.08,41.77ZM9.15,101.19c4.66-12.78,20.28-32,36.5-45C30.44,80.7,16.86,97.74,9.15,101.19Zm149.65.61c8.11-14.39,21.29-27,35.69-37.52C181.92,81.92,165.29,101.39,158.8,101.8Z"/></g></g></svg>