<svg xmlns="http://www.w3.org/2000/svg" viewBox="0 0 209.25 160.37"><defs><style>.cls-1{fill:#70655c;}.cls-2{fill:#9f9170;}</style></defs><title>logo_new</title><g id="Layer_2" data-name="Layer 2"><g id="artwork"><path class="cls-1" d="M83.78,3c0,1.41-.35,1.76-1.23,2.82s-2.64,2.11-2.64,4.58C81,8.45,81.85,8.27,84,6.86c.53-.35.71-1.41,1.76-2.29l.18.7h1.23a16.73,16.73,0,0,0-2.64,1.94,5.63,5.63,0,0,0-1.76,3.52c0,2.82,2.81,6,2.81,8.1a5.33,5.33,0,0,1-5.28,5.45,3.13,3.13,0,0,1-1.76-.7v-.36a5.29,5.29,0,0,0,1.76.18c1.58,0,3.87-2.47,3.87-4.23a4.53,4.53,0,0,0-1.23-2.81,5.68,5.68,0,0,1,.53,2.81c0,1.58-2.11,3.7-4.93,3.7A4,4,0,0,1,75.87,22a4.38,4.38,0,0,0,1.58.18C79,22.17,81,19.89,81,18c-.7,1.58-2.81,3.52-4.75,3.52a9.61,9.61,0,0,1-4.93-1.58,7.75,7.75,0,0,0,3.17.35c3.34,0,5.1-2.29,5.1-3.35a4.72,4.72,0,0,0-1.05-3.52,13.77,13.77,0,0,1,.35,2.82c0,2.29-3.17,3.7-5.28,3.7-2.81,0-4-1.76-4-3.52,0-.88.18-1.41.18-2.47a3.58,3.58,0,0,0-1.06,2.47,6.33,6.33,0,0,0,1.41,3.17c-2.46-1.41-3.17-3-3.17-4.4a8.64,8.64,0,0,1,1.41-3.87,4.16,4.16,0,0,0-2.11,3.87c0,1.76,1.05,2.82,2.46,4.22-3.17-1.23-3.52-2.64-3.52-4A7.12,7.12,0,0,1,69.71,9a25.49,25.49,0,0,1,6-1.23c3.52-.35,7.21-3.34,7.21-5.45A2.07,2.07,0,0,0,81.32.18C82.91.18,83.78,1.41,83.78,3Z"/><path class="cls-1" d="M71.64,21.65l1.23-.53.53,1.06,1.23-.53L75,22.7a4.67,4.67,0,0,1,2.82,1.06,8.27,8.27,0,0,0-3.17-.35l-.35-1.06-1.23.53-.53-1.06-1.41.53a5,5,0,0,0-1.41-2.46A3.67,3.67,0,0,1,71.64,21.65Z"/><path class="cls-1" d="M71.64,10.21a32.92,32.92,0,0,1,5.81-1.76c-2.82.35-4.75.53-6,1.59Z"/><path class="cls-1" d="M84.49,3.34a5.08,5.08,0,0,0-.35-1.59A4.43,4.43,0,0,1,87.83,0,2.9,2.9,0,0,1,89.6.35a8.14,8.14,0,0,0-1.76.88l.7.53C87,2.29,86.25,2.46,85.2,4a7.28,7.28,0,0,1-3,3.17L82,7A4.75,4.75,0,0,0,84.49,3.34Z"/><path class="cls-1" d="M14.61,116l-.35.17c-.18,0-.18-.17-.35-.17-.35,0-1.41,2.11-6.51,2.11C3.69,118.08,0,116,0,111.74c0-4,3.34-6.68,8.1-6.68a11.35,11.35,0,0,1,5.46,1.41l.17-.18.35.18-1.58,2.81-.35-.17c.17-.18.17-.18.17-.35,0-.35-1.76-1.76-4.57-1.76-2.64,0-5.28,1.58-5.28,4.57,0,3.34,2.64,4.57,5.1,4.57,2.82,0,5.1-1.58,5.1-2.11v-.36l.18-.18ZM32,110.51v-4.57c0-.35,0-.35-.35-.35v-.36h3.17v.36c-.35,0-.35,0-.35.35V117.2c0,.35,0,.35.35.35v.35H31.68v-.35c.35,0,.35,0,.35-.35v-4.4H24.11v4.4c0,.35,0,.35.53.35v.35H21.12v-.35c.35,0,.53,0,.53-.35V105.94c0-.35-.18-.35-.53-.35v-.36h3.52v.36c-.53,0-.53,0-.53.35v4.57Zm15.31-2.64-2.11,4.76h4.05Zm7,9.5.35.18v.35H51.21v-.35l.36-.18-1.23-2.81h-6l-1.23,2.81.35.18v.35H40.3v-.35l.53-.18,5.28-11.61-.52-.18v-.36h3.69v.36l-.53.18Zm9.15-.18c0,.35,0,.35.53.35v.35H60.89v-.35c.35,0,.35,0,.35-.35V105.94c0-.35,0-.35-.35-.35v-.36h3.52v.36l-.35.18,4.4,7.73,4-7.73-.53-.18v-.36h3.87v.36c-.35,0-.35,0-.35.35V117.2c0,.35,0,.35.35.35v.35h-3v-.35c.35,0,.35,0,.35-.35V109.1l-4.57,8.8h-.35l-4.75-8.62Zm22.88-6.87h5.45c1.05,0,1.93-.35,1.93-1.58s-.88-1.41-1.93-1.41H86.41Zm5.63-5.1c3,0,4.23,1.59,4.23,3.34a3.15,3.15,0,0,1-1.58,2.64,2.94,2.94,0,0,1,1.94,3.18c0,2.46-1.94,3.51-4.23,3.51h-9v-.35c.53,0,.53,0,.53-.35V105.94c0-.35,0-.35-.53-.35v-.36Zm-5.63,10.56h5.28c1.58,0,2.46-.35,2.46-1.76,0-1.23-.88-1.76-2.46-1.76H86.41Zm28.68,2.29c0-.18-.18-.18-.7-.18H102.95v-.35c.35,0,.53,0,.53-.35V105.94c0-.35-.18-.35-.53-.35v-.36H114.2c.53,0,.7,0,.7-.18h.18v2.64h-.18c0-.18-.17-.35-.7-.35h-8.27v3h5.46c.35,0,.53-.18.53-.35h.35v2.82h-.35c0-.17-.18-.35-.53-.35h-5.46v3.33h8.45c.52,0,.7,0,.7-.18h.18v2.47Zm9.85-7.56H130c1.93,0,2.46-.53,2.46-1.59s-1.06-1.58-2.81-1.58h-4.75Zm6.86,6.86-3.17-4.75h-3.69v4.57c0,.35,0,.35.35.35v.35h-3.34v-.35c.35,0,.35,0,.35-.35V105.94c0-.35,0-.35-.35-.35v-.36h7c3.87,0,6,1.06,6,3.87a3.53,3.53,0,0,1-3.52,3.52l3.17,4.57a.91.91,0,0,0,.7.35v.35h-3.7v-.35Zm40.65-5.81c0,3.7-3.17,6.51-7.74,6.51s-7.74-2.81-7.74-6.51,3.16-6.51,7.74-6.51S172.45,107.87,172.45,111.56Zm-13.2,0c0,2.64,2.29,4.57,5.46,4.57s5.45-1.93,5.45-4.57-2.29-4.57-5.45-4.57S159.25,108.93,159.25,111.56Zm27.45-1.23a.47.47,0,0,0,.53-.53h.35v3h-.35c0-.17-.18-.35-.53-.35h-5.1v4.75c0,.35,0,.35.35.35v.35h-3.34v-.35c.35,0,.53,0,.53-.35V105.94c0-.35-.18-.35-.53-.35v-.36h10.73c.53,0,.71,0,.71-.18h.17v2.47H190c0-.18-.18-.18-.71-.18H181.6v3ZM14.61,140.16l-.35.17c-.18,0-.18-.17-.35-.17-.35,0-1.41,2.11-6.51,2.11-3.7,0-7.39-2.11-7.39-6.34,0-4,3.34-6.69,8.1-6.69a11.35,11.35,0,0,1,5.46,1.41l.17-.18.35.18-1.58,2.82-.35-.18c.17-.18.17-.18.17-.35,0-.35-1.76-1.76-4.57-1.76-2.64,0-5.28,1.58-5.28,4.58,0,3.34,2.64,4.57,5.1,4.57,2.82,0,5.1-1.58,5.1-2.11v-.35l.18-.18Zm25.17-4.4c0,3.69-3.17,6.51-7.75,6.51s-7.74-2.82-7.74-6.51,3.17-6.52,7.74-6.52S39.77,132.06,39.77,135.76Zm-13.2,0c0,2.64,2.29,4.57,5.45,4.57s5.45-1.93,5.45-4.57-2.28-4.58-5.45-4.58S26.57,133.12,26.57,135.76Zm27.28,5.63c0,.36,0,.36.53.36v.35H51.21v-.35c.36,0,.36,0,.36-.36V130.13c0-.36,0-.36-.36-.36v-.35h3.52v.35l-.35.18,4.4,7.74,4-7.74-.53-.18v-.35h3.87v.35c-.35,0-.35,0-.35.36v11.26c0,.36,0,.36.35.36v.35h-3v-.35c.35,0,.35,0,.35-.36V133.3L59,142.09H58.6l-4.75-8.62Zm27.28,0c0,.36,0,.36.53.36v.35H78.48v-.35c.35,0,.35,0,.35-.36V130.13c0-.36,0-.36-.35-.36v-.35H82v.35l-.35.18,4.4,7.74,4-7.74-.53-.18v-.35h3.87v.35c-.35,0-.35,0-.35.36v11.26c0,.36,0,.36.35.36v.35h-3v-.35c.35,0,.35,0,.35-.36V133.3l-4.58,8.79h-.35l-4.75-8.62Zm35.89.88c0-.18-.18-.18-.71-.18H104.88v-.35c.35,0,.53,0,.53-.36V130.13c0-.36-.17-.36-.53-.36v-.35h11.26c.53,0,.7,0,.7-.17H117v2.64h-.18c0-.17-.18-.35-.7-.35h-8.27v3h5.45c.35,0,.53-.18.53-.35h.35V137h-.35c0-.18-.18-.36-.53-.36h-5.45V140h8.44c.53,0,.71,0,.71-.18h.18v2.47Zm14.43-7.57h5.1c1.94,0,2.46-.52,2.46-1.58s-1.05-1.58-2.81-1.58h-4.75Zm6.87,6.87-3.17-4.75h-3.7v4.57c0,.36,0,.36.35.36v.35h-3.35v-.35c.35,0,.35,0,.35-.36V130.13c0-.36,0-.36-.35-.36v-.35h7c3.87,0,6,1.06,6,3.88a3.53,3.53,0,0,1-3.52,3.52l3.17,4.57a.92.92,0,0,0,.7.36v.35h-3.69v-.35Zm28.33-1.4-.35.17c-.18,0-.18-.17-.35-.17-.35,0-1.41,2.11-6.51,2.11-3.7,0-7.39-2.11-7.39-6.34,0-4,3.35-6.69,8.09-6.69a11.32,11.32,0,0,1,5.45,1.41l.18-.18.35.18-1.58,2.82-.35-.18c.17-.18.17-.18.17-.35,0-.35-1.76-1.76-4.57-1.76-2.64,0-5.28,1.58-5.28,4.58,0,3.34,2.64,4.57,5.1,4.57,2.82,0,5.1-1.58,5.1-2.11v-.35l.17-.18Zm22.88,2.11c0-.18-.18-.18-.7-.18H177.38v-.35c.35,0,.53,0,.53-.36V130.13c0-.36-.17-.36-.53-.36v-.35h11.26c.53,0,.71,0,.71-.17h.18v2.64h-.18c0-.17-.17-.35-.71-.35h-8.27v3h5.45c.35,0,.53-.18.53-.35h.35V137h-.35c0-.18-.18-.36-.53-.36h-5.45V140h8.45c.53,0,.7,0,.7-.18h.18v2.47Z"/><rect class="cls-2" x="0.02" y="159.37" width="191.45" height="1"/><path class="cls-2" d="M179.16,48.92a170.71,170.71,0,0,1,30.09-14.78l-.7-2.64c-4.93,1.93-14.08,4.57-25.7,11.08,1.94-3.69,3.17-6.68,3.17-8.27,0-1.41-1.41-3.17-2.82-3.17-5.63,0-33.08,24.81-40.29,29.92,8.8-14.25,23.23-25,23.23-29.56,0-1.41-.88-3-2.46-3-2.47,0-10.56,3.87-17.95,6.51-1.23-3.17-4.4-6.16-7.39-6.16-5.81,0-13.73,3.52-13.73,8.28a1.91,1.91,0,0,0,.17.87c-5.81,5.1-16.89,14.43-25.33,21.65,1.94-3.87,7.38-9.85,12-15.31,2.64-3,5.81-6.34,5.81-7.92,0-4.57-3.17-3.87-3.17-5.8,0-1.06,1.05-2.64,2.64-4a4.6,4.6,0,0,0-3.17-1.76c-3.17,2.81-10.2,7.92-18.65,15.13C87.13,46.46,78.51,55.08,70.06,60a22.86,22.86,0,0,1,3-10c9.68-8.45,32.9-28.69,36.07-31.85,3.69-3.69,4.4-5.63,4.4-6.69a2.16,2.16,0,0,0-2.46-2.29c-5.63,0-32.55,21.29-42.4,38.89-5.63,4.4-11.26,8.45-16,11.61C56.86,50,64.61,42.23,69.18,38c2.64-2.46,4.4-4.4,4.4-5.63a2.88,2.88,0,0,0-2.81-2.29c-4.4,0-24.11,21.82-24.11,29.56,0,2.64,2.82,5.81,5.1,5.81,1.76,0,8.1-4.4,13.55-8.8a8.53,8.53,0,0,0-.18,2.11c0,3.52,4.75,6.16,6,6.16s4.4-1.06,8.8-4.93S99.1,41.53,111.76,31c.53,1.05,1.76,2.11,1.76,3s-2.11,2.11-4.23,4.4-18.47,18.48-18.47,25c0,2.81,2.81,5.45,4.4,5.45,4.75,0,12.31-10.2,16.54-13.9,0,5.28,2.64,9,6,9,7.57,0,24.46-13.9,27.8-23.41,3.87-1.58,7.92-3.17,11.79-4.75-8.27,7.92-20.41,21.11-20.41,26.92,0,1.94,3.35,5.1,4.58,5.1s4-1.76,6-3.34,28.33-24.81,33.61-28.33a87.79,87.79,0,0,1-6.69,11.44c-12,7.39-23.58,16.19-33.78,28-3,3.52-5.46,6.51-7,8.44H21.67c12.15-14.6,23.58-33.08,28-42.41a116.55,116.55,0,0,1,11.08-6.86c1.76-.88,2.29-1.23,2.29-1.76,0-.35-.18-.53-.71-.53-1.58,0-5.81,1.76-10.91,4.58a1.91,1.91,0,0,0,.18-.88c0-2.11-1.41-4.22-4.75-4.22-6,0-30.27,22.52-38.71,26.57C11.64,48,31.52,23.76,49.47,23.76c1.06,0,1.58.35,2.64.35.88,0,1.06-.18,1.06-1.06,0-1.58-3.52-5.63-9.85-5.63-16.9,0-41.71,28.68-41.71,39.41,0,3.52,5.8,7.39,7.56,7.39,7.39,0,26.75-23.93,37.83-27.8-1.06,1.94-2.11,3.7-3.17,5.46A152.28,152.28,0,0,0,9.7,74.79a105.63,105.63,0,0,0-6.16,9.15H0V85H3a11,11,0,0,0-1.41,3.7c.17,1.76,4.93,6.51,7,6.51s7-4.58,8.62-6.34c1.23-1.23,2.29-2.64,3.35-3.87H132.88a9.45,9.45,0,0,0-1.4,2.64c0,1.41,4,7,6.33,7,4.4,0,9.68-4.57,14.78-9.68h38.89V83.94h-38C160.5,76,171.77,60.71,179.16,48.92ZM106.48,16.37A322.4,322.4,0,0,1,80.8,38.54,103.25,103.25,0,0,1,106.48,16.37Zm11.79,42.05c-.88,0-1.41,0-1.41-.88,0-3.17,6.68-11.61,11.26-14.78a9.6,9.6,0,0,0,4.22.71,26.51,26.51,0,0,0,7.21-1.06C133.93,50.15,122.32,58.42,118.27,58.42Zm24.1-22.17a27.71,27.71,0,0,1-5.8,1.41c1.58-.88,2.64-1.93,2.64-2.64,0-.88-1.76-3-3.87-3a22.64,22.64,0,0,1,2.81-.17c2.64,0,4.4,1.05,4.4,3.34A2.19,2.19,0,0,1,142.38,36.25ZM7.94,87.81C12,76.73,25.54,60,39.61,48.74,26.42,70,14.63,84.82,7.94,87.81Zm129.86.53c7-12.49,18.48-23.4,31-32.55C157.87,71.09,143.44,88,137.8,88.34Z"/></g></g></svg>