<svg xmlns="http://www.w3.org/2000/svg" viewBox="0 0 54.63 51.83"><defs><style>.cls-1{fill:#fff;}</style></defs><title>magnifying_glass_wh</title><g id="Layer_2" data-name="Layer 2"><g id="artwork"><path class="cls-1" d="M41,19.44C41,8.7,31.8,0,20.48,0S0,8.7,0,19.44,9.18,38.87,20.48,38.87,41,30.17,41,19.44ZM20.48,34C12,34,5.13,27.48,5.13,19.44S12,4.86,20.48,4.86s15.37,6.53,15.37,14.58S28.95,34,20.48,34Zm0,0"/><path class="cls-1" d="M53.13,43.54,40.59,31.65a23.47,23.47,0,0,1-7.23,6.87L45.89,50.41a5.33,5.33,0,0,0,7.24,0,4.68,4.68,0,0,0,0-6.87Zm0,0"/></g></g></svg>