<svg id="Layer_1" data-name="Layer 1" xmlns="http://www.w3.org/2000/svg" viewBox="0 0 300 300"><defs><style>.cls-1{fill:#ff9c0c;}</style></defs><title>Artboard 1</title><path class="cls-1" d="M224.47,113.39C224.47,55.18,174.72,8,113.35,8S2.29,55.19,2.29,113.39,52.07,218.78,113.35,218.78s111.12-47.19,111.12-105.39ZM113.35,192.45c-45.93,0-83.25-35.45-83.25-79.06s37.32-79,83.25-79,83.35,35.43,83.35,79-37.45,79.06-83.35,79.06Zm0,0"/><path class="cls-1" d="M290.36,244.07l-68-64.46a127.27,127.27,0,0,1-39.18,37.24l67.92,64.48a28.88,28.88,0,0,0,39.26,0,25.37,25.37,0,0,0,0-37.26Zm0,0"/></svg>