<svg xmlns="http://www.w3.org/2000/svg" viewBox="0 0 19.94 19.86"><defs><style>.cls-1{fill:#ff9b0c;}</style></defs><title>phone</title><g id="Layer_2" data-name="Layer 2"><g id="Contact_Us" data-name="Contact Us"><path class="cls-1" d="M6.09,5.92c.34-.18,1.91-.8,1.52-2.1S5,.21,3.88,0C3.08-.13,2,1.29,2,1.29A10.92,10.92,0,0,1,6.09,5.92Z"/><path class="cls-1" d="M16.09,12.23c-1.3-.38-1.92,1.2-2.09,1.53a10.92,10.92,0,0,1,4.67,4.09s1.4-1.13,1.26-1.93C19.72,14.77,17.4,12.62,16.09,12.23Z"/><path class="cls-1" d="M13.47,14.32l0-.11a1.78,1.78,0,0,1-.4.36,1.94,1.94,0,0,1-1.7-.14s-.48-.29-1.14-.75l-.42-.29a17.3,17.3,0,0,1-3-2.85l-.17-.23C6,9.33,5.45,8.53,5.45,8.53a1.94,1.94,0,0,1-.16-1.7,1.78,1.78,0,0,1,.36-.4l-.11,0a.26.26,0,0,1,.11,0S3.28,2.21,1.47,1.8A5.63,5.63,0,0,0,0,5.1c-.08,2.47,1.86,5.6,3.34,7.54L3.6,13a18.16,18.16,0,0,0,3.07,3.11l.3.24c1.91,1.49,5.28,3.64,7.89,3.54a5.63,5.63,0,0,0,3.28-1.49c-.42-1.81-4.65-4.15-4.65-4.15A.26.26,0,0,1,13.47,14.32Z"/></g></g></svg>