<svg id="Layer_1" data-name="Layer 1" xmlns="http://www.w3.org/2000/svg" viewBox="0 0 300 300"><defs><style>.cls-1{fill:#fff;}</style></defs><title>Artboard 1</title><path class="cls-1" d="M150,2A147.5,147.5,0,1,0,297.5,149.5,147.5,147.5,0,0,0,150,2ZM96.12,223.08A19.58,19.58,0,1,1,115.7,203.5,19.58,19.58,0,0,1,96.12,223.08Zm49.14.12a68.82,68.82,0,0,0-20.14-48.87,68,68,0,0,0-48.55-20.2V125.87c53.46,0,97,43.67,97,97.34Zm49.93,0C195.18,157.51,142,104,76.61,104V75.75c81,0,146.85,66.16,146.85,147.5Z"/></svg>