<svg id="Layer_1" data-name="Layer 1" xmlns="http://www.w3.org/2000/svg" viewBox="0 0 300 300"><defs><style>.cls-1{fill:#ff9c0c;}</style></defs><title>Artboard 1</title><path class="cls-1" d="M69.59,75.33,52.67,64.49a7.28,7.28,0,0,0-10.08,2.24L4.13,127.66a7.28,7.28,0,0,0,2.23,10l16.92,10.84a7.28,7.28,0,0,0,10.08-2.24L71.82,85.35A7.28,7.28,0,0,0,69.59,75.33Z"/><path class="cls-1" d="M227,206.7c-.14-.19-.31-.34-.45-.53-3.08-4.5-6.72-9.85-9.8-14.39-.09-.13-.13-.27-.21-.39L208.2,179.2a8.27,8.27,0,0,0-6.84-3.58,8.23,8.23,0,0,0-6.78,12.87l2.87,4.2c.06.08.15.15.21.24l15.67,22.78A14,14,0,0,1,214,217l1.44,2.12a8.24,8.24,0,0,0,11.57,2.08,8.27,8.27,0,0,0,2.06-11.38Z"/><path class="cls-1" d="M145.8,116.58a12.48,12.48,0,0,1,12.58-.59l38.11,19.92a5.57,5.57,0,0,0,5.91-.49,5.54,5.54,0,0,0,1.05-7.79L185.51,104.3a22,22,0,0,0-13.4-8.21l-21-3.91a91.69,91.69,0,0,0-35.61.41L93.1,97.29a12.49,12.49,0,0,1-7.23-.64L79.31,94a4.88,4.88,0,0,0-6,1.92L41,147.12a4.89,4.89,0,0,0,.77,6.16l19.51,18.43a16.81,16.81,0,0,1,2.5-2Z"/><path class="cls-1" d="M177.36,217a6.59,6.59,0,0,0-4.21-2.38,7,7,0,0,0-.94-.07,6.64,6.64,0,0,0-4.24,1.53,6.74,6.74,0,0,0-1.24,9l7.64,11A6.69,6.69,0,0,0,186,229.58Z"/><path class="cls-1" d="M191.73,196.63a8.14,8.14,0,0,0-5.4-3.24,8.89,8.89,0,0,0-1.21-.09,8.15,8.15,0,0,0-5.16,1.84,8.28,8.28,0,0,0-1.6,11.08l4.72,6.86c.11.14.25.26.36.41l7.63,11c.25.36.41.77.62,1.16L194,229a8.24,8.24,0,0,0,10.71,2.58,8.2,8.2,0,0,0,3.61-10.6Z"/><path class="cls-1" d="M229.37,100.92a9.27,9.27,0,0,0-12.12-3.28l-3.55,1.84a12.44,12.44,0,0,1-3.79,1.25l-16.39,2.6,15.19,19.76a13,13,0,0,1,2.81,7.11,12.49,12.49,0,0,1-5.62,11.25,13.07,13.07,0,0,1-13.18.34l-37.56-19.64a5.53,5.53,0,0,0-5.58.26l-82,53.14a9.78,9.78,0,0,0-3.06,13.26c2.78,4.6,9.3,5.8,13.91,3l6.6-4,1.76-1.05h0l35.48-21.23a3.47,3.47,0,0,1,3.57,6L88.61,193.86l-2.51,1.5a6.85,6.85,0,0,0-2.2,9.64,11.25,11.25,0,0,0,14.68,3.67l34.66-18.89a3.47,3.47,0,1,1,3.32,6.1L111.5,209.54l-6.2,3.78a6.44,6.44,0,0,0-3,4.31,6.62,6.62,0,0,0,1.31,5.33,10.23,10.23,0,0,0,13.3,3.62L143.75,213a3.47,3.47,0,0,1,3.15,6.19l-19.28,9.79a3.49,3.49,0,0,0,.06,6.28,24.38,24.38,0,0,0,13.45,1.74l21.21-3.24a1.08,1.08,0,0,0,.72-1.68l-1.79-2.56a14,14,0,0,1-2.09-12.24,13.69,13.69,0,0,1,10.74-9.38,1.06,1.06,0,0,0,.85-1.41,15.28,15.28,0,0,1,4.81-16.68,15.12,15.12,0,0,1,9.62-3.32,1.06,1.06,0,0,0,1.09-1.18,14.87,14.87,0,0,1,.21-4.38,15.12,15.12,0,0,1,8-10.54c6.9-3.57,15.43-.94,19.81,5.47l.08.11a1.09,1.09,0,0,0,1.85-.12,15.2,15.2,0,0,1,5.18-5.24,15,15,0,0,1,18.75,2.52,1.07,1.07,0,0,0,1.65,0L256,154.31a9.27,9.27,0,0,0,.45-10.55Z"/><path class="cls-1" d="M235.87,178.69a8,8,0,0,0-6.58-3.42,8.27,8.27,0,0,0-4.36,1.25,8,8,0,0,0-2.65,11l10.45,15.3a8,8,0,0,0,10.81,1.48l.32-.23a8.07,8.07,0,0,0,1.93-11.17Z"/><path class="cls-1" d="M296.56,130.29,258.1,69.36a7.28,7.28,0,0,0-10-2.27L231.46,77.57a7.28,7.28,0,0,0-2.27,10l38.47,60.92a7.28,7.28,0,0,0,10,2.27l16.59-10.47A7.28,7.28,0,0,0,296.56,130.29Z"/></svg>