<svg xmlns="http://www.w3.org/2000/svg" viewBox="0 0 41.98 41.98"><defs><style>.cls-1{fill:#ff9b0c;}</style></defs><title>twitter</title><g id="Layer_2" data-name="Layer 2"><g id="Blog"><path class="cls-1" d="M21,0A21,21,0,1,0,42,21,21,21,0,0,0,21,0Zm8.35,16.71c0,.18,0,.37,0,.56A12.25,12.25,0,0,1,10.5,27.59a9,9,0,0,0,1,.06,8.63,8.63,0,0,0,5.35-1.84,4.31,4.31,0,0,1-4-3,4.41,4.41,0,0,0,.81.08,4.32,4.32,0,0,0,1.13-.15,4.32,4.32,0,0,1-3.45-4.22v-.05a4.29,4.29,0,0,0,2,.54A4.31,4.31,0,0,1,12,13.25a12.22,12.22,0,0,0,8.88,4.5,4.31,4.31,0,0,1,7.34-3.93,8.63,8.63,0,0,0,2.74-1A4.33,4.33,0,0,1,29,15.16a8.6,8.6,0,0,0,2.47-.68A8.75,8.75,0,0,1,29.34,16.71Z"/></g></g></svg>