<svg id="Layer_1" data-name="Layer 1" xmlns="http://www.w3.org/2000/svg" viewBox="0 0 300 300"><defs><style>.cls-1{fill:#ff9c0c;fill-rule:evenodd;}</style></defs><title>Artboard 1</title><path class="cls-1" d="M203.15,213.31l-9.28,9.18c44.73,2.78,76.47,10.25,76.47,23.18,0,16.82-53.68,30.44-119.91,30.44S30.51,262.5,30.51,245.68c0-13.19,33-20.71,79.21-23.34l-9.46-9.28c-56.82,5.86-97.42,21.4-97.42,39.66,0,23.29,66.07,42.16,147.58,42.16S298,276,298,252.71C298,234.73,258.61,219.38,203.15,213.31Z"/><path class="cls-1" d="M151.21,241.57S192.8,193.26,213.08,168s31.68-48.78,31.68-71.39a93.54,93.54,0,0,0-187.09,0c0,23,7.08,45.12,27.91,71.39C103.69,190.83,151.21,241.57,151.21,241.57Zm0-188.92a45.93,45.93,0,1,1-45.94,45.93A45.92,45.92,0,0,1,151.21,52.65Z"/></svg>