<svg id="Layer_1" data-name="Layer 1" xmlns="http://www.w3.org/2000/svg" viewBox="0 0 300 300"><defs><style>.cls-1{fill:#ff9c0c;}</style></defs><title>Artboard 1</title><path class="cls-1" d="M223.93,144.59a111,111,0,1,0-111,111A111,111,0,0,0,223.93,144.59Zm-19.58,0a17.72,17.72,0,1,1-17.72-17.72A17.72,17.72,0,0,1,204.35,144.59ZM152.52,80a17.72,17.72,0,1,1,0,25.07A17.7,17.7,0,0,1,152.52,80Zm0,104.17a17.72,17.72,0,1,1,0,25.06A17.73,17.73,0,0,1,152.52,184.14ZM113,53.21A17.72,17.72,0,1,1,95.24,70.93,17.72,17.72,0,0,1,113,53.21ZM48.35,80a17.72,17.72,0,1,1,0,25.07A17.69,17.69,0,0,1,48.35,80ZM21.58,144.59A17.72,17.72,0,1,1,39.3,162.31,17.72,17.72,0,0,1,21.58,144.59ZM73.41,209.2a17.72,17.72,0,1,1,0-25.06A17.71,17.71,0,0,1,73.41,209.2Zm21.83,9.05A17.72,17.72,0,1,1,113,236,17.72,17.72,0,0,1,95.24,218.25Z"/><path class="cls-1" d="M232.52,157.34s-5.76,100.37-126.6,107c0,0,116.51,19.43,192.58-83.27Z"/></svg>