<?xml version="1.0" encoding="utf-8"?>
<!-- Generator: Adobe Illustrator 21.0.2, SVG Export Plug-In . SVG Version: 6.00 Build 0)  -->
<svg version="1.1" id="Layer_1" xmlns="http://www.w3.org/2000/svg" xmlns:xlink="http://www.w3.org/1999/xlink" x="0px" y="0px"
	 viewBox="0 0 300 300" style="enable-background:new 0 0 300 300;" xml:space="preserve">
<style type="text/css">
	.st0{fill:#FF9C0C;}
	.st1{fill:#FFFFFF;}
	.st2{fill-rule:evenodd;clip-rule:evenodd;fill:#FFFFFF;}
</style>
<circle class="st0" cx="150" cy="150" r="149.5"/>
<path class="st2" d="M65.6,90h168.7c2.6,0,4.9,1.4,6.2,3.5l-76.9,57.1c-10.5,7.3-16.2,7.8-27.4-0.1l-76.8-57
	C60.8,91.4,63.1,90,65.6,90L65.6,90z M241.7,104.2v93.1l-65.2-44.7L241.7,104.2L241.7,104.2z M239.9,207.4c-1.3,1.6-3.3,2.6-5.6,2.6
	H65.6c-2.2,0-4.2-1-5.6-2.6l71.4-48.9c5.8,4.3,10.7,7.3,18.5,7.3c7.8,0,12.8-3,18.6-7.3L239.9,207.4L239.9,207.4z M58.3,197.3v-93.1
	l65.2,48.4L58.3,197.3L58.3,197.3z"/>
</svg>
