<svg xmlns="http://www.w3.org/2000/svg" viewBox="0 0 97.24 74.52"><defs><style>.cls-1{fill:#70655c;}.cls-2{fill:#af976d;}</style></defs><title>logo_tone</title><g id="Layer_2" data-name="Layer 2"><g id="Layer_1-2" data-name="Layer 1"><path class="cls-1" d="M38.93,1.39a1.61,1.61,0,0,1-.57,1.3c-.41.49-1.23,1-1.23,2.13.49-.9.9-1,1.88-1.64.25-.16.33-.65.82-1.06l.08.33h.57a7.93,7.93,0,0,0-1.23.9A2.62,2.62,0,0,0,38.44,5c0,1.31,1.31,2.78,1.31,3.76a2.47,2.47,0,0,1-2.45,2.53,1.44,1.44,0,0,1-.82-.33v-.16a2.5,2.5,0,0,0,.82.08,2.36,2.36,0,0,0,1.8-2,2.09,2.09,0,0,0-.57-1.31,2.63,2.63,0,0,1,.25,1.31,2.21,2.21,0,0,1-2.29,1.72,1.87,1.87,0,0,1-1.23-.41,2,2,0,0,0,.74.08,2.11,2.11,0,0,0,1.64-2A2.87,2.87,0,0,1,35.42,10a4.47,4.47,0,0,1-2.29-.73,3.61,3.61,0,0,0,1.47.16A2.24,2.24,0,0,0,37,7.85a2.19,2.19,0,0,0-.49-1.63,6.38,6.38,0,0,1,.16,1.31c0,1.06-1.47,1.72-2.45,1.72a1.66,1.66,0,0,1-1.88-1.63c0-.41.08-.66.08-1.15a1.65,1.65,0,0,0-.49,1.15,3,3,0,0,0,.65,1.47,2.37,2.37,0,0,1-1.47-2,4,4,0,0,1,.65-1.8,1.93,1.93,0,0,0-1,1.8c0,.82.49,1.31,1.15,2-1.48-.57-1.64-1.23-1.64-1.88a3.31,3.31,0,0,1,2.13-2.94,11.79,11.79,0,0,1,2.78-.57c1.63-.17,3.35-1.55,3.35-2.54a1,1,0,0,0-.73-1A1.17,1.17,0,0,1,38.93,1.39Z"/><path class="cls-1" d="M33.29,10.06l.57-.25.24.49.57-.25.16.49a2.14,2.14,0,0,1,1.31.5,3.73,3.73,0,0,0-1.47-.17l-.16-.49-.57.25-.25-.49-.65.24a2.34,2.34,0,0,0-.66-1.14A1.71,1.71,0,0,1,33.29,10.06Z"/><path class="cls-1" d="M33.29,4.74A15.17,15.17,0,0,1,36,3.93a5.42,5.42,0,0,0-2.78.73Z"/><path class="cls-1" d="M39.26,1.56A2.25,2.25,0,0,0,39.1.82,2.06,2.06,0,0,1,40.82,0a1.33,1.33,0,0,1,.82.17,3.53,3.53,0,0,0-.82.41l.33.25a2.26,2.26,0,0,0-1.55,1.06A3.38,3.38,0,0,1,38.2,3.35l-.08-.08A2.2,2.2,0,0,0,39.26,1.56Z"/><path class="cls-1" d="M6.79,53.89,6.62,54c-.08,0-.08-.08-.16-.08a3.94,3.94,0,0,1-3,1c-1.71,0-3.43-1-3.43-2.95s1.56-3.11,3.76-3.11a5.25,5.25,0,0,1,2.54.65l.08-.08.16.08-.74,1.3-.16-.08c.08-.08.08-.08.08-.16a2.51,2.51,0,0,0-2.12-.82,2.24,2.24,0,0,0-2.46,2.12A2.12,2.12,0,0,0,3.52,54a2.86,2.86,0,0,0,2.37-1v-.16L6,52.75Zm8.1-2.53V49.23c0-.16,0-.16-.16-.16V48.9h1.47v.17c-.16,0-.16,0-.16.16v5.23c0,.16,0,.16.16.16v.16H14.72v-.16c.16,0,.16,0,.16-.16v-2H11.2v2c0,.16,0,.16.25.16v.16H9.81v-.16c.16,0,.24,0,.24-.16V49.23c0-.16-.08-.16-.24-.16V48.9h1.64v.17c-.25,0-.25,0-.25.16v2.13ZM22,50.13l-1,2.21H22.9Zm3.27,4.41.16.08v.16H23.79v-.16l.17-.08-.58-1.3H20.61L20,54.54l.16.08v.16H18.73v-.16l.24-.08,2.46-5.39-.25-.08V48.9H22.9v.17l-.25.08Zm4.25-.08c0,.16,0,.16.25.16v.16H28.29v-.16c.16,0,.16,0,.16-.16V49.23c0-.16,0-.16-.16-.16V48.9h1.63v.17l-.16.08,2,3.59,1.88-3.59-.25-.08V48.9h1.8v.17c-.16,0-.16,0-.16.16v5.23c0,.16,0,.16.16.16v.16H33.85v-.16c.16,0,.16,0,.16-.16V50.7l-2.13,4.09h-.16l-2.21-4Zm10.63-3.19h2.54c.49,0,.9-.16.9-.73s-.41-.66-.9-.66H40.15Zm2.62-2.37c1.39,0,2,.74,2,1.55A1.47,1.47,0,0,1,44,51.68a1.37,1.37,0,0,1,.9,1.48c0,1.14-.9,1.63-2,1.63H38.76v-.16c.25,0,.25,0,.25-.16V49.23c0-.16,0-.16-.25-.16V48.9Zm-2.62,4.91H42.6c.74,0,1.15-.16,1.15-.82s-.41-.82-1.15-.82H40.15Zm13.33,1.06c0-.08-.08-.08-.33-.08H47.84v-.16c.16,0,.25,0,.25-.16V49.23c0-.16-.08-.16-.25-.16V48.9h5.24c.24,0,.32,0,.32-.08h.08V50H53.4c0-.08-.08-.17-.32-.17H49.23v1.39h2.54c.17,0,.25-.09.25-.16h.16v1.31H52c0-.08-.08-.16-.25-.16H49.23v1.55h3.93c.24,0,.33,0,.33-.08h.08v1.15Zm4.58-3.51h2.37c.9,0,1.15-.25,1.15-.74s-.49-.74-1.31-.74H58.06Zm3.19,3.19-1.48-2.21H58.06v2.13c0,.16,0,.16.16.16v.16H56.67v-.16c.16,0,.16,0,.16-.16V49.23c0-.16,0-.16-.16-.16V48.9h3.27c1.8,0,2.78.49,2.78,1.8a1.64,1.64,0,0,1-1.64,1.64l1.47,2.13a.43.43,0,0,0,.33.16v.16H61.17v-.16Zm18.89-2.7c0,1.72-1.47,3-3.6,3s-3.6-1.31-3.6-3,1.48-3,3.6-3S80.14,50.13,80.14,51.84Zm-6.13,0a2.58,2.58,0,1,0,2.53-2.12A2.28,2.28,0,0,0,74,51.84Zm12.76-.57A.22.22,0,0,0,87,51h.16v1.39H87c0-.08-.08-.16-.25-.16H84.39v2.2c0,.16,0,.16.16.16v.16H83v-.16c.16,0,.25,0,.25-.16V49.23c0-.16-.09-.16-.25-.16V48.9h5c.25,0,.33,0,.33-.08h.08V50h-.08c0-.08-.08-.08-.33-.08h-3.6v1.39Zm-80,13.86-.16.08c-.08,0-.08-.08-.16-.08a3.94,3.94,0,0,1-3,1c-1.71,0-3.43-1-3.43-2.94s1.56-3.11,3.76-3.11a5.26,5.26,0,0,1,2.54.65l.08-.08.16.08L5.81,62l-.16-.08c.08-.08.08-.08.08-.16A2.52,2.52,0,0,0,3.6,61a2.25,2.25,0,0,0-2.46,2.13,2.12,2.12,0,0,0,2.37,2.13,2.87,2.87,0,0,0,2.37-1v-.16L6,64Zm11.7-2c0,1.72-1.47,3-3.6,3s-3.6-1.31-3.6-3,1.47-3,3.6-3S18.48,61.37,18.48,63.09Zm-6.13,0a2.28,2.28,0,0,0,2.54,2.13,2.16,2.16,0,1,0,0-4.26A2.28,2.28,0,0,0,12.35,63.09ZM25,65.7c0,.17,0,.17.25.17V66H23.79v-.16c.17,0,.17,0,.17-.17V60.48c0-.17,0-.17-.17-.17v-.16h1.64v.16l-.16.08,2,3.6,1.88-3.6-.25-.08v-.16h1.8v.16c-.16,0-.16,0-.16.17V65.7c0,.17,0,.17.16.17V66H29.36v-.16c.17,0,.17,0,.17-.17V61.94L27.39,66h-.16L25,62Zm12.68,0c0,.17,0,.17.24.17V66H36.47v-.16c.16,0,.16,0,.16-.17V60.48c0-.17,0-.17-.16-.17v-.16h1.64v.16l-.16.08L40,64l1.88-3.6-.25-.08v-.16h1.8v.16c-.16,0-.16,0-.16.17V65.7c0,.17,0,.17.16.17V66H42v-.16c.16,0,.16,0,.16-.17V61.94L40.07,66h-.16L37.7,62Zm16.68.41c0-.08-.08-.08-.33-.08H48.74v-.16c.16,0,.25,0,.25-.17V60.48c0-.17-.08-.17-.25-.17v-.16H54c.25,0,.33,0,.33-.08h.08v1.23H54.3c0-.08-.08-.16-.33-.16H50.13v1.39h2.53c.16,0,.25-.08.25-.16h.17v1.31h-.17c0-.08-.08-.16-.25-.16H50.13v1.55H54c.25,0,.33,0,.33-.08h.08v1.15Zm6.7-3.52h2.37c.9,0,1.14-.25,1.14-.74s-.49-.73-1.31-.73H61.08Zm3.19,3.19L62.8,63.58H61.08V65.7c0,.17,0,.17.17.17V66H59.7v-.16c.16,0,.16,0,.16-.17V60.48c0-.17,0-.17-.16-.17v-.16H63c1.8,0,2.78.49,2.78,1.8a1.64,1.64,0,0,1-1.64,1.64l1.47,2.12a.43.43,0,0,0,.33.17V66H64.19v-.16Zm13.17-.65-.16.08c-.08,0-.08-.08-.17-.08a3.93,3.93,0,0,1-3,1c-1.71,0-3.43-1-3.43-2.94s1.56-3.11,3.76-3.11a5.27,5.27,0,0,1,2.53.65l.08-.08.16.08L76.46,62l-.17-.08c.08-.08.08-.08.08-.16A2.53,2.53,0,0,0,74.25,61a2.24,2.24,0,0,0-2.45,2.13,2.12,2.12,0,0,0,2.37,2.13,2.86,2.86,0,0,0,2.37-1v-.16l.08-.08Zm10.63,1c0-.08-.08-.08-.33-.08H82.43v-.16c.16,0,.25,0,.25-.17V60.48c0-.17-.08-.17-.25-.17v-.16h5.24c.24,0,.33,0,.33-.08h.08v1.23H88c0-.08-.08-.16-.33-.16H83.82v1.39h2.53c.16,0,.25-.08.25-.16h.16v1.31H86.6c0-.08-.08-.16-.25-.16H83.82v1.55h3.92c.25,0,.33,0,.33-.08h.08v1.15Z"/><rect class="cls-2" x="0.01" y="74.06" width="88.96" height="0.47"/><path class="cls-2" d="M83.26,22.73a78.86,78.86,0,0,1,14-6.87l-.33-1.23A74.76,74.76,0,0,0,85,19.79a11,11,0,0,0,1.47-3.84,1.57,1.57,0,0,0-1.31-1.47c-2.61,0-15.37,11.53-18.72,13.9C70.5,21.75,77.2,16.77,77.2,14.64a1.28,1.28,0,0,0-1.15-1.39c-1.14,0-4.9,1.8-8.34,3-.57-1.48-2-2.86-3.43-2.86-2.7,0-6.38,1.63-6.38,3.84a.89.89,0,0,0,.08.41c-2.7,2.37-7.85,6.7-11.78,10.06.9-1.8,3.44-4.58,5.56-7.11,1.23-1.39,2.7-2.94,2.7-3.68,0-2.13-1.47-1.8-1.47-2.7a3.18,3.18,0,0,1,1.23-1.88,2.14,2.14,0,0,0-1.47-.82c-1.47,1.31-4.74,3.68-8.67,7-3.6,3-7.6,7-11.53,9.32a10.64,10.64,0,0,1,1.39-4.66c4.5-3.92,15.29-13.33,16.76-14.8,1.72-1.72,2-2.62,2-3.11a1,1,0,0,0-1.14-1.06c-2.61,0-15.13,9.9-19.71,18.07-2.62,2-5.23,3.92-7.44,5.39,2-4.5,5.55-8.09,7.68-10.06,1.23-1.14,2-2,2-2.62A1.34,1.34,0,0,0,32.88,14c-2,0-11.2,10.14-11.2,13.74A3,3,0,0,0,24,30.42c.82,0,3.77-2,6.3-4.09a4,4,0,0,0-.08,1c0,1.64,2.21,2.86,2.78,2.86s2-.49,4.09-2.29S46,19.3,51.94,14.39c.25.49.82,1,.82,1.39s-1,1-2,2-8.58,8.58-8.58,11.61a2.77,2.77,0,0,0,2,2.54c2.21,0,5.72-4.75,7.69-6.46,0,2.45,1.23,4.17,2.78,4.17,3.52,0,11.37-6.46,12.92-10.88,1.8-.73,3.68-1.47,5.48-2.21-3.84,3.68-9.48,9.81-9.48,12.51a3.47,3.47,0,0,0,2.13,2.37,7,7,0,0,0,2.78-1.55c.9-.74,13.17-11.53,15.62-13.17A41.11,41.11,0,0,1,81,22.08a66.42,66.42,0,0,0-15.7,13c-1.39,1.63-2.54,3-3.27,3.92h-52a110.72,110.72,0,0,0,13-19.7,53.83,53.83,0,0,1,5.15-3.19c.81-.41,1.06-.57,1.06-.82S29.2,15,29,15a16.41,16.41,0,0,0-5.07,2.13.9.9,0,0,0,.08-.41,2,2,0,0,0-2.21-2C19,14.8,7.7,25.27,3.77,27.15,5.41,22.33,14.65,11,23,11c.49,0,.73.16,1.22.16s.49-.08.49-.49c0-.73-1.64-2.61-4.58-2.61C12.28,8.1.75,21.43.75,26.41c0,1.64,2.7,3.44,3.51,3.44,3.43,0,12.43-11.12,17.58-12.92-.49.9-1,1.71-1.47,2.53A70.71,70.71,0,0,0,4.51,34.76,49,49,0,0,0,1.65,39H0v.49H1.4a5.12,5.12,0,0,0-.65,1.72c.08.82,2.29,3,3.27,3s3.27-2.13,4-2.94c.57-.58,1.06-1.23,1.55-1.8H61.75a4.42,4.42,0,0,0-.65,1.23C61.1,41.38,63,44,64,44c2,0,4.5-2.12,6.87-4.5H89V39H71.32A145.56,145.56,0,0,0,83.26,22.73ZM49.48,7.61a150,150,0,0,1-11.94,10.3A48.08,48.08,0,0,1,49.48,7.61ZM55,27.15c-.41,0-.65,0-.65-.41,0-1.47,3.11-5.4,5.23-6.87a4.46,4.46,0,0,0,2,.33,12.23,12.23,0,0,0,3.35-.49C62.24,23.3,56.84,27.15,55,27.15Zm11.2-10.3a12.68,12.68,0,0,1-2.7.65c.74-.41,1.22-.9,1.22-1.23a2,2,0,0,0-1.8-1.39,10,10,0,0,1,1.31-.08c1.23,0,2,.49,2,1.56A1,1,0,0,1,66.17,16.85Zm-62.48,24c1.88-5.15,8.18-12.92,14.72-18.16C12.28,32.55,6.8,39.42,3.69,40.81ZM64,41.05c3.27-5.81,8.59-10.88,14.39-15.13C73.36,33,66.66,40.89,64,41.05Z"/><path class="cls-2" d="M80.63,29.37H79.8v-.3h2v.3H81V31.8h-.35Z"/><path class="cls-2" d="M84.41,30.6c0-.38,0-.84,0-1.18h0c-.1.31-.21.66-.34,1l-.48,1.32h-.27l-.44-1.3c-.13-.39-.23-.74-.31-1.06h0c0,.34,0,.79-.05,1.21l-.07,1.17H82l.19-2.73h.46l.46,1.32c.11.34.2.64.27.92h0c.07-.28.17-.58.29-.92l.49-1.32h.45l.17,2.73h-.35Z"/></g></g></svg>