<svg id="Layer_1" data-name="Layer 1" xmlns="http://www.w3.org/2000/svg" viewBox="0 0 300 300"><defs><style>.cls-1{fill:#ff9c0c;}</style></defs><title>Artboard 1</title><path class="cls-1" d="M150.44,123.35a44.82,44.82,0,1,0,44.83,44.83A44.89,44.89,0,0,0,150.44,123.35Z"/><path class="cls-1" d="M281.17,75.32H216.48L195,38.18H105.88L84.41,75.32H19.69A17.85,17.85,0,0,0,1.86,93.17v150A17.83,17.83,0,0,0,19.69,261H281.17A17.81,17.81,0,0,0,299,243.19v-150A17.83,17.83,0,0,0,281.17,75.32ZM113.31,51.56h74.26V67.88H113.31Zm37.14,180.52a63.88,63.88,0,1,1,63.86-63.89A63.94,63.94,0,0,1,150.44,232.08ZM269.29,113.2H232.15V96.85h37.14Z"/></svg>