<svg id="Layer_1" data-name="Layer 1" xmlns="http://www.w3.org/2000/svg" viewBox="0 0 300 300"><defs><style>.cls-1{fill:#70655c;}</style></defs><title>Artboard 1</title><path class="cls-1" d="M120.22,41c0,2-.48,2.48-1.73,4s-3.71,3-3.71,6.45c1.49-2.73,2.72-3,5.7-5,.75-.5,1-2,2.48-3.23l.25,1h1.74a23.16,23.16,0,0,0-3.73,2.73c-1,1-2.48,3-2.48,5,0,4,4,8.43,4,11.41A7.51,7.51,0,0,1,115.26,71a4.41,4.41,0,0,1-2.47-1v-.5a7.37,7.37,0,0,0,2.47.26c2.23,0,5.45-3.48,5.45-6a6.33,6.33,0,0,0-1.74-4,7.9,7.9,0,0,1,.75,4c0,2.23-3,5.21-6.94,5.21a5.61,5.61,0,0,1-3.72-1.24,6.18,6.18,0,0,0,2.23.25c2.23,0,5-3.23,5-6-1,2.23-4,5-6.7,5a13.55,13.55,0,0,1-6.94-2.23,11,11,0,0,0,4.47.5c4.71,0,7.18-3.22,7.18-4.71,0-2-.24-3.71-1.48-5a19.48,19.48,0,0,1,.49,4c0,3.22-4.46,5.21-7.44,5.21-4,0-5.71-2.48-5.71-5,0-1.25.25-2,.25-3.48a5,5,0,0,0-1.49,3.48c0,1.48,1,3,2,4.46-3.47-2-4.46-4.22-4.46-6.2a12.15,12.15,0,0,1,2-5.45c-1.73.74-3,3-3,5.45s1.48,4,3.47,5.95c-4.47-1.74-5-3.72-5-5.7a10,10,0,0,1,6.45-8.92c2.23-1,5.2-1.24,8.43-1.74C113.77,47.19,119,43,119,40a2.91,2.91,0,0,0-2.23-3C119,37,120.22,38.76,120.22,41Z"/><path class="cls-1" d="M103.11,67.28l1.74-.74.74,1.49,1.74-.74.49,1.49a6.59,6.59,0,0,1,4,1.49c-.75-.49-3-.49-4.47-.49l-.5-1.49L105.1,69l-.75-1.49-2,.74a7.09,7.09,0,0,0-2-3.47A5.13,5.13,0,0,1,103.11,67.28Z"/><path class="cls-1" d="M103.11,51.16a46.7,46.7,0,0,1,8.18-2.48c-4,.49-6.69.75-8.43,2.23Z"/><path class="cls-1" d="M121.21,41.5a7.21,7.21,0,0,0-.49-2.24,6.25,6.25,0,0,1,5.21-2.48,4,4,0,0,1,2.48.5,11.53,11.53,0,0,0-2.48,1.24l1,.74c-2.23.75-3.22,1-4.7,3.23A10.28,10.28,0,0,1,118,46.95l-.25-.25C119.73,45.46,121.21,43.47,121.21,41.5Z"/><path class="cls-1" d="M22.76,200.17l-.5.24c-.24,0-.24-.24-.49-.24-.49,0-2,3-9.17,3-5.21,0-10.41-3-10.41-8.93,0-5.7,4.71-9.41,11.41-9.41a16.08,16.08,0,0,1,7.69,2l.24-.25.5.25-2.23,4-.49-.25c.24-.24.24-.24.24-.49,0-.5-2.48-2.48-6.44-2.48-3.72,0-7.44,2.23-7.44,6.45,0,4.71,3.72,6.45,7.19,6.45,4,0,7.18-2.22,7.18-3v-.5l.25-.25Zm24.55-7.68V186c0-.49,0-.49-.5-.49V185h4.46v.51c-.5,0-.5,0-.5.49v15.87c0,.49,0,.49.5.49v.49H46.81v-.49c.5,0,.5,0,.5-.49v-6.2H36.15v6.2c0,.49,0,.49.75.49v.49h-5v-.49c.5,0,.74,0,.74-.49V186c0-.49-.25-.49-.74-.49V185h5v.51c-.75,0-.75,0-.75.49v6.45Zm21.57-3.73-3,6.7H71.6Zm9.92,13.39.5.25v.49h-5v-.49l.51-.25-1.75-4H64.66l-1.73,4,.48.25v.49H59v-.49l.75-.25,7.43-16.36-.74-.24V185h5.2v.51l-.74.24Zm12.89-.24c0,.49,0,.49.75.49v.49H88v-.49c.49,0,.49,0,.49-.49V186c0-.49,0-.49-.49-.49V185h5v.51l-.49.24,6.2,10.9,5.7-10.9-.74-.24V185H109v.51c-.5,0-.5,0-.5.49v15.87c0,.49,0,.49.5.49v.49h-4.21v-.49c.49,0,.49,0,.49-.49V190.49l-6.44,12.4h-.51l-6.69-12.15Zm32.24-9.68h7.68c1.48,0,2.73-.49,2.73-2.23s-1.25-2-2.73-2h-7.68Zm7.92-7.19c4.22,0,6,2.23,6,4.71a4.46,4.46,0,0,1-2.23,3.72c1.49.74,2.72,1.49,2.72,4.48,0,3.46-2.72,4.95-6,4.95H119.7v-.49c.74,0,.74,0,.74-.49V186c0-.49,0-.49-.74-.49V185Zm-7.92,14.87h7.43c2.23,0,3.47-.49,3.47-2.47,0-1.74-1.25-2.48-3.47-2.48h-7.43Zm40.4,3.23c0-.25-.25-.25-1-.25H147.23v-.49c.48,0,.73,0,.73-.49V186c0-.49-.25-.49-.73-.49V185h15.87c.74,0,1,0,1-.25h.25v3.72h-.25c0-.24-.25-.5-1-.5H151.43v4.21h7.69c.5,0,.75-.25.75-.49h.49v4h-.49c0-.25-.25-.49-.75-.49h-7.69v4.7h11.91c.74,0,1,0,1-.25h.25v3.47Zm13.89-10.65h7.19c2.72,0,3.47-.75,3.47-2.24s-1.5-2.24-4-2.24h-6.69Zm9.67,9.66-4.47-6.69h-5.2v6.45c0,.49,0,.49.49.49v.49H174v-.49c.49,0,.49,0,.49-.49V186c0-.49,0-.49-.49-.49V185h9.91c5.45,0,8.43,1.48,8.43,5.45,0,2.73-2,4.72-5,5l4.47,6.45a1.3,1.3,0,0,0,1,.49v.49h-5.21v-.49ZM245.15,194c0,5.21-4.47,9.17-10.91,9.17s-10.91-4-10.91-9.17,4.46-9.17,10.91-9.17S245.15,188.76,245.15,194Zm-18.6,0c0,3.72,3.22,6.44,7.69,6.44s7.68-2.72,7.68-6.44-3.23-6.45-7.68-6.45S226.55,190.25,226.55,194Zm38.69-1.74a.66.66,0,0,0,.74-.74h.49v4.22H266c0-.25-.26-.49-.74-.49H258v6.69c0,.49,0,.49.49.49v.49h-4.7v-.49c.49,0,.74,0,.74-.49V186c0-.49-.25-.49-.74-.49V185H269c.74,0,1,0,1-.25h.24v3.47h-.24c0-.26-.25-.26-1-.26H258v4.21Zm-242.48,42-.5.25c-.24,0-.24-.25-.49-.25-.49,0-2,3-9.17,3-5.21,0-10.41-3-10.41-8.93,0-5.7,4.71-9.42,11.41-9.42a16,16,0,0,1,7.69,2l.24-.25.5.25-2.23,4-.49-.25c.24-.25.24-.25.24-.49,0-.5-2.48-2.48-6.44-2.48-3.72,0-7.44,2.23-7.44,6.45,0,4.71,3.72,6.45,7.19,6.45,4,0,7.18-2.23,7.18-3V231l.25-.25Zm35.46-6.2c0,5.2-4.47,9.17-10.91,9.17s-10.91-4-10.91-9.17,4.46-9.18,10.91-9.18S58.21,222.85,58.21,228.06Zm-18.6,0c0,3.72,3.23,6.45,7.69,6.45S55,231.78,55,228.06s-3.21-6.45-7.67-6.45S39.62,224.34,39.62,228.06ZM78,236c0,.51,0,.51.75.51V237H74.33v-.49c.51,0,.51,0,.51-.51V220.13c0-.5,0-.5-.51-.5v-.49h5v.49l-.5.25L85,230.78l5.7-10.91-.75-.25v-.49H95.4v.49c-.49,0-.49,0-.49.5V236c0,.51,0,.51.49.51V237H91.18v-.49c.5,0,.5,0,.5-.51v-11.4L85.23,237h-.49L78,224.84Zm38.43,0c0,.51,0,.51.74.51V237h-4.47v-.49c.51,0,.51,0,.51-.51V220.13c0-.5,0-.5-.51-.5v-.49h5v.49l-.49.25,6.2,10.91,5.7-10.91-.74-.25v-.49h5.46v.49c-.49,0-.49,0-.49.5V236c0,.51,0,.51.49.51V237h-4.21v-.49c.5,0,.5,0,.5-.51v-11.4L123.66,237h-.49l-6.69-12.14Zm50.58,1.24c0-.25-.25-.25-1-.25H149.95v-.49c.5,0,.75,0,.75-.51V220.13c0-.5-.25-.5-.75-.5v-.49h15.87c.74,0,1,0,1-.25h.25v3.72h-.25c0-.25-.25-.5-1-.5H154.17v4.21h7.68c.5,0,.74-.25.74-.49h.51v4h-.51c0-.24-.25-.49-.74-.49h-7.68V234h11.89c.75,0,1,0,1-.25h.25v3.47Zm20.32-10.67h7.2c2.73,0,3.47-.74,3.47-2.23s-1.48-2.23-4-2.23h-6.7Zm9.67,9.68-4.46-6.7h-5.21V236c0,.51,0,.51.5.51V237h-4.71v-.49c.5,0,.5,0,.5-.51V220.13c0-.5,0-.5-.5-.5v-.49h9.91c5.46,0,8.43,1.49,8.43,5.46,0,2.72-2,4.71-5,5L201,236a1.29,1.29,0,0,0,1,.51V237h-5.2v-.49Zm39.92-2-.49.25c-.25,0-.25-.25-.5-.25-.5,0-2,3-9.17,3-5.21,0-10.41-3-10.41-8.93,0-5.7,4.71-9.42,11.4-9.42a15.9,15.9,0,0,1,7.68,2l.26-.25.49.25-2.23,4-.49-.25c.24-.25.24-.25.24-.49,0-.5-2.48-2.48-6.44-2.48-3.72,0-7.44,2.23-7.44,6.45,0,4.71,3.72,6.45,7.19,6.45,4,0,7.2-2.23,7.2-3V231l.24-.25Zm32.23,3c0-.25-.25-.25-1-.25H252.09v-.49c.5,0,.74,0,.74-.51V220.13c0-.5-.25-.5-.74-.5v-.49H268c.74,0,1,0,1-.25h.25v3.72H269c0-.25-.26-.5-1-.5H256.3v4.21H264c.5,0,.74-.25.74-.5h.5v4h-.5c0-.24-.24-.49-.74-.49H256.3V234h11.91c.75,0,1,0,1-.25h.25v3.47Z"/><rect class="cls-1" x="2.21" y="261.32" width="269.75" height="1.41"/><path class="cls-1" d="M254.6,105.71A240.41,240.41,0,0,1,297,84.89l-1-3.72c-6.94,2.72-19.84,6.45-36.21,15.62,2.73-5.21,4.48-9.42,4.48-11.65,0-2-2-4.46-4-4.46-7.93,0-46.61,35-56.78,42.14,12.4-20.08,32.73-35.2,32.73-41.65,0-2-1.24-4.22-3.47-4.22-3.47,0-14.88,5.46-25.29,9.18-1.74-4.46-6.2-8.68-10.42-8.68-8.18,0-19.33,5-19.33,11.66a2.75,2.75,0,0,0,.24,1.23c-8.18,7.19-23.79,20.33-35.7,30.49,2.72-5.45,10.41-13.88,16.86-21.57,3.71-4.22,8.18-8.93,8.18-11.17,0-6.44-4.47-5.45-4.47-8.17,0-1.49,1.49-3.72,3.73-5.7a6.49,6.49,0,0,0-4.47-2.48c-4.46,4-14.37,11.16-26.28,21.32-10.9,9.17-23.05,21.32-35,28.27,0-4,1.49-8.93,4.22-14.13,13.63-11.9,46.36-40.42,50.83-44.88,5.2-5.2,6.19-7.93,6.19-9.42s-.74-3.22-3.47-3.22c-7.94,0-45.86,30-59.74,54.79C91,110.67,83,116.37,76.35,120.83c5.95-13.63,16.86-24.54,23.3-30.49,3.71-3.46,6.2-6.2,6.2-7.93,0-1.24-2-3.47-4-3.23-6.2,0-34,30.74-34,41.65,0,3.72,4,8.19,7.19,8.19,2.48,0,11.41-6.21,19.1-12.4a12,12,0,0,0-.25,3c0,5,6.7,8.68,8.44,8.68s6.19-1.49,12.39-6.94,27-26,44.88-40.91c.75,1.48,2.48,3,2.48,4.22s-3,3-6,6.19-26,26-26,35.21c0,4,4,7.68,6.2,7.68,6.7,0,17.36-14.38,23.31-19.59,0,7.44,3.72,12.65,8.43,12.65,10.66,0,34.46-19.58,39.17-33,5.45-2.24,11.15-4.46,16.61-6.7C212.2,98.27,195.1,116.86,195.1,125c0,2.73,4.71,7.19,6.44,7.19s5.71-2.48,8.43-4.71,39.91-35,47.36-39.91a123.94,123.94,0,0,1-9.43,16.11c-16.86,10.41-33.22,22.81-47.59,39.43-4.22,5-7.7,9.17-9.93,11.89H32.71c17.11-20.58,33.22-46.61,39.42-59.75a165.38,165.38,0,0,1,15.61-9.67C90.22,84.39,91,83.89,91,83.15c0-.5-.25-.74-1-.74-2.24,0-8.18,2.48-15.38,6.45a2.65,2.65,0,0,0,.26-1.24c0-3-2-5.95-6.7-5.95-8.43,0-42.64,31.73-54.54,37.43,5-14.62,33-48.84,58.26-48.84,1.49,0,2.23.5,3.72.5,1.24,0,1.49-.25,1.49-1.49,0-2.23-5-7.93-13.88-7.93-23.81,0-58.76,40.41-58.76,55.53,0,5,8.18,10.42,10.66,10.42,10.41,0,37.68-33.72,53.3-39.18-1.48,2.74-3,5.22-4.46,7.69a214.76,214.76,0,0,0-48.1,46.36A149.29,149.29,0,0,0,7.17,155h-5v1.49H6.43c-1.23,2.48-2,4.21-2,5.2.24,2.48,6.94,9.18,9.91,9.18s9.93-6.45,12.15-8.93c1.74-1.74,3.22-3.72,4.72-5.45H189.4c-1.23,2-2,3.22-2,3.72,0,2,5.7,9.92,8.92,9.92,6.2,0,13.64-6.44,20.83-13.63H272V155H218.4C228.32,143.89,244.19,122.31,254.6,105.71ZM152.2,59.85c-7.43,7.43-21.07,19.33-36.19,31.24C125.68,79.42,139.07,67.52,152.2,59.85Zm16.62,59.25c-1.24,0-2,0-2-1.24,0-4.46,9.43-16.36,15.87-20.82a13.47,13.47,0,0,0,5.94,1,37.27,37.27,0,0,0,10.17-1.5C190.88,107.44,174.53,119.09,168.82,119.09Zm34-31.24a38.94,38.94,0,0,1-8.18,2c2.23-1.24,3.72-2.73,3.72-3.72,0-1.24-2.48-4.22-5.46-4.22a32,32,0,0,1,4-.24c3.72,0,6.2,1.49,6.2,4.7A3.11,3.11,0,0,1,202.78,87.86ZM13.37,160.5c5.69-15.62,24.79-39.17,44.62-55C39.4,135.45,22.79,156.28,13.37,160.5Zm183,.75c9.92-17.6,26-33,43.63-45.87C224.6,136.94,204.27,160.74,196.34,161.24Z"/></svg>