<svg id="Layer_1" data-name="Layer 1" xmlns="http://www.w3.org/2000/svg" viewBox="0 0 300 300"><defs><style>.cls-1{fill:#fff;}</style></defs><title>Artboard 1</title><path class="cls-1" d="M149.83,2A147.51,147.51,0,1,0,297.34,149.51,147.51,147.51,0,0,0,149.83,2Zm58.65,117.44c.07,1.29.09,2.59.09,3.91,0,40-30.44,86.11-86.11,86.11a85.63,85.63,0,0,1-46.39-13.6,63,63,0,0,0,7.22.41,60.63,60.63,0,0,0,37.58-12.94,30.3,30.3,0,0,1-28.26-21,31,31,0,0,0,5.69.54,30.38,30.38,0,0,0,8-1.06A30.33,30.33,0,0,1,82,132.1v-.37a30.12,30.12,0,0,0,13.71,3.77,30.3,30.3,0,0,1-9.36-40.4,85.87,85.87,0,0,0,62.38,31.62,30.28,30.28,0,0,1,51.57-27.6,60.63,60.63,0,0,0,19.22-7.34,30.41,30.41,0,0,1-13.31,16.74,60.42,60.42,0,0,0,17.38-4.76A61.47,61.47,0,0,1,208.48,119.44Z"/></svg>